<svg width="2304" height="2298" viewBox="0 0 2304 2298" fill="none" xmlns="http://www.w3.org/2000/svg">
<mask id="mask0_1_361" style="mask-type:luminance" maskUnits="userSpaceOnUse" x="0" y="0" width="2304" height="2298">
<path d="M2304 0H0V2297.18H2304V0Z" fill="white"/>
</mask>
<g mask="url(#mask0_1_361)">
<path d="M1841.23 634.595C1841.23 323.455 1517.24 70.3242 1119.02 70.3242C720.791 70.3242 396.88 323.455 396.88 634.595C396.88 784.742 471.652 926.11 607.441 1032.68C611.629 1035.96 614.077 1040.99 614.079 1046.31V1767.22C614.079 1801.71 648.495 1829.76 690.8 1829.76H1547.31C1556.11 1829.77 1564.88 1828.52 1573.33 1826.05C1574.84 1825.24 1576.46 1824.67 1578.14 1824.34L1578.88 1824.2C1605.51 1814.36 1624.08 1792.5 1624.08 1767.18V1046.31C1624.08 1040.99 1626.53 1035.96 1630.71 1032.68C1766.45 926.11 1841.23 784.742 1841.23 634.595Z" fill="#F9F6E1" stroke="#F9F6E1" stroke-width="9.62016" stroke-miterlimit="10" stroke-linecap="round"/>
<path d="M1117.07 785.295C1116.82 795.201 1116.02 805.085 1114.66 814.901L1069.45 825.603L1109.76 843.761C1101.53 874.137 1087.1 894.267 1070.68 894.267H1070.41C1079.72 904.417 1090.37 910.309 1101.68 910.309C1136.41 910.309 1165.77 854.344 1165.77 788.085C1165.77 781.326 1165.43 774.665 1164.86 768.171H1116.47C1116.85 773.775 1117.07 779.475 1117.07 785.295ZM943.69 896.119C952.612 905.234 962.689 910.549 973.296 910.549C989.89 910.549 1006.12 897.37 1018.37 874.137C1007.04 848.716 1000.86 817.546 1000.86 785.511C1000.86 779.739 1001.1 774.039 1001.48 768.411H987.966C988.423 774.544 988.664 780.87 988.664 787.315C988.675 797.169 988.097 807.016 986.932 816.801L944.483 826.83L981.978 843.665C974.089 874.185 959.948 894.893 943.69 896.119ZM981.425 1040.88C978.37 1052.42 997.442 1077.24 1030.68 1095.76C1034.85 1098.07 1039.07 1100.19 1043.35 1102.13L1026.37 1025.99C996.119 1026.98 983.204 1034.1 981.425 1040.88ZM1146.39 993.956C1146.21 993.166 1146.1 992.361 1146.07 991.551C1141.26 994.124 1136.26 997.107 1131.16 1000.21C1126.06 1003.31 1120.22 1006.85 1114.52 1009.83V1010.24L1137.87 1114.83C1149.51 1113.14 1160.88 1109.91 1171.66 1105.21C1171.06 1104.14 1170.61 1102.99 1170.32 1101.8L1146.39 993.956ZM1052.88 1025.29L1072.12 1111.88C1085.06 1114.97 1098.32 1116.59 1111.63 1116.69L1089.99 1019.35C1077.82 1022.43 1065.4 1024.41 1052.88 1025.29ZM1196.75 990.998C1188.77 985.912 1179.4 983.456 1169.96 983.975C1170.82 985.288 1171.44 986.747 1171.78 988.28L1194.61 1090.59C1214.38 1072.99 1221.06 1048.17 1214.62 1016.73C1212.37 1006.1 1205.93 996.816 1196.75 990.998ZM1492.74 1894.62C1485.13 1897.57 1477.82 1901.25 1470.92 1905.61C1462.53 1910.85 1453.68 1915.29 1444.47 1918.89C1450 1934.23 1464.24 1974.2 1426.48 1998.47C1426.36 1999.15 1426.2 1999.83 1426 2000.49C1424.26 2006.35 1422.82 2012.3 1421.69 2018.31L1420.95 2021.68L1419.43 2029.18C1416.11 2045.63 1412.38 2064.25 1403.27 2080.34C1402.64 2081.44 1401.97 2082.48 1401.27 2083.51C1414.47 2086.95 1427.08 2092.3 1438.72 2099.41C1443.42 2102.32 1447.93 2105.53 1452.21 2109.03C1442.3 2107.22 1432.28 2106.01 1422.22 2105.4C1413.23 2104.82 1404.28 2104.58 1395.4 2104.63C1389.32 2104.63 1379.17 2105.13 1371.35 2105.57C1363.67 2108.38 1355.81 2110.7 1347.83 2112.52L1344.85 2113.24C1324.36 2118.34 1308.46 2125.12 1297.47 2141.64C1287.45 2156.27 1283.27 2174.11 1285.73 2191.67C1289.82 2218.39 1311.49 2251.14 1360 2262.93C1404.3 2273.7 1453.05 2268.65 1497.26 2248.69C1537.43 2230.39 1570.69 2199.73 1592.18 2161.17C1613.54 2122.88 1625.2 2079.94 1626.14 2036.11C1627.51 1986.08 1617.32 1949.17 1595.02 1923.24C1569.72 1894.1 1529.49 1882.84 1492.74 1894.62ZM932.747 2061.7C940.253 2075.25 946.834 2089.3 952.444 2103.74C955.061 2110.49 951.706 2118.09 944.952 2120.71C938.198 2123.32 930.601 2119.97 927.985 2113.21C920.935 2095.03 912.216 2077.53 901.938 2060.95C875.146 2017.66 840.345 1985.87 801.311 1968.89C761.123 1951.4 717.928 1957.22 687.938 1982.07C717.135 1984.3 745.658 1994.98 773.1 2013.98C802.874 2034.64 831.134 2065.38 854.871 2102.97C901.12 2176.11 936.498 2226.83 998.717 2257.08C1024.55 2222.09 1031.21 2166.97 1014.23 2123.27C1001.17 2089.64 973.296 2073.58 932.747 2061.7ZM408.905 1131.81C401.064 1123.56 390.193 1120.08 378.625 1119.14C375.905 1120.31 372.863 1120.51 370.015 1119.69C369.306 1119.48 368.614 1119.22 367.947 1118.9H367.634C358.88 1118.9 349.957 1120.65 340.313 1121.69C342.718 1119.28 345.893 1116.88 348.61 1114.71C352.434 1112.01 356.453 1109.6 360.635 1107.5C360.617 1106.29 360.779 1105.09 361.117 1103.94L362.151 1100.33C370.135 1072.6 376.581 1050.69 376.413 1032.44C376.413 1010.24 368.404 1000.69 358.303 988.593C350.94 980.358 344.837 971.078 340.193 961.055C335.383 950.04 332.809 937.582 330.332 925.533C327.133 909.972 323.526 892.343 316.046 890.275C304.935 887.22 294.401 889.577 287.57 896.576C276.339 908.289 275.545 932.652 285.502 963.532C287.691 970.363 294.377 991.142 282.303 1003.19C277.349 1008 267.873 1012.81 251.278 1007.5C250.768 1007.34 250.27 1007.15 249.787 1006.92C221.961 993.932 208.3 966.346 192.475 934.431C188.964 927.361 185.26 920.001 181.436 912.594C171.623 893.979 157.915 891.189 148.367 894.82C137.544 898.909 128.838 912.04 133.744 932.195C135.596 939.795 155.101 967.501 188.362 1006.1C193.598 1011.39 198.482 1017.01 202.985 1022.94C207.212 1028.41 206.331 1036.24 200.994 1040.64C195.658 1045.03 187.796 1044.39 183.24 1039.19C179.464 1034.96 174.726 1029.57 169.531 1023.59C164.553 1018.61 159.358 1013.97 153.994 1009.16C140.189 996.674 125.904 983.783 115.033 964.687C107.12 950.81 91.4874 938.881 79.9913 943.835C64.7914 950.353 59.8851 959.203 73.0167 991.719C73.9962 994.161 75.204 996.504 76.6242 998.718C95.7202 1008.23 118.296 1025.32 144.35 1049.99C150.477 1054.93 156.114 1060.45 161.185 1066.47C165.429 1071.76 164.815 1079.44 159.786 1083.99C154.757 1088.54 147.053 1088.39 142.21 1083.64C138.265 1079.67 133.046 1074.5 126.986 1068.8C118.544 1062.29 109.709 1056.31 100.53 1050.88C85.8355 1041.84 70.78 1032.56 59.8852 1019.02C47.2587 1013.68 42.2562 1015.7 41.0777 1016.4C26.2146 1025.15 25.9741 1034.29 27.7057 1042.06C32.9487 1065.84 67.5332 1101.27 120.204 1136.84C170.709 1170.92 215.636 1190.83 228.695 1192.16C229.461 1192.23 230.218 1192.37 230.956 1192.59C234.935 1187.92 239.676 1183.96 244.977 1180.88C248.596 1178.52 253.218 1178.34 257.01 1180.41C260.802 1182.47 263.15 1186.46 263.124 1190.78C263.097 1195.1 260.699 1199.06 256.882 1201.08C237.642 1212.5 238.532 1234.75 248.08 1251.73C260.826 1274.41 288.629 1289.27 322.516 1272.51C314.423 1260.55 307.482 1247.85 301.784 1234.58C301.494 1233.88 301.26 1233.16 301.087 1232.42C298.771 1238.47 297.439 1244.85 297.142 1251.32C296.874 1256.31 292.756 1260.21 287.763 1260.22H287.282C282.104 1259.95 278.124 1255.54 278.383 1250.36C279.73 1223.57 294.184 1199.59 319.028 1182.8C342.02 1167.29 371.723 1159.83 388.101 1165.51C393.002 1167.2 395.603 1172.55 393.909 1177.45C392.216 1182.35 386.869 1184.95 381.968 1183.26C378.151 1182.28 374.175 1182.08 370.28 1182.68C371.442 1183.89 372.321 1185.34 372.853 1186.94C379.009 1204.04 389.285 1219.36 402.772 1231.55C411.063 1220.91 416.961 1208.6 420.064 1195.47C424.874 1172.7 423.768 1148.48 408.905 1131.81ZM264.602 1064.62C261.548 1069.91 256.738 1073.15 252.962 1077.53C248.488 1082.73 244.143 1088.13 239.926 1093.74C234.01 1101.68 228.406 1110 223.091 1118.63C220.862 1121.75 218.838 1125.02 217.031 1128.4C215.347 1132.05 211.739 1137.61 211.018 1141.58C213.163 1129.58 216.087 1117.74 219.772 1106.13C221.376 1100.87 223.195 1095.67 225.232 1090.54C231.148 1075.03 238.387 1057.71 248.344 1045.74C250.893 1042.71 254.549 1037.39 257.435 1040.93C260.201 1044.17 267.633 1059.66 264.771 1064.47L264.602 1064.62ZM2139.91 1529.68C2139.21 1529.35 2138.55 1528.95 2137.94 1528.48C2132.59 1531.47 2126.77 1533.56 2120.74 1534.66C2120.03 1534.78 2119.32 1534.84 2118.6 1534.85C2112.53 1534.84 2107.48 1530.21 2106.93 1524.16C2106.39 1518.12 2110.54 1512.66 2116.51 1511.57C2138.59 1507.53 2145.37 1486.29 2142.22 1467.08C2138.03 1441.29 2116.94 1417.72 2079.16 1421.96C2082.96 1436.55 2085.27 1451.49 2086.06 1466.55C2086.06 1466.55 2086.06 1466.55 2086.06 1466.67C2090.2 1461.85 2093.57 1456.41 2096.04 1450.55C2098.2 1445.99 2103.58 1443.94 2108.23 1445.92C2112.87 1447.9 2115.13 1453.19 2113.33 1457.91C2102.82 1482.59 2081.01 1500.15 2051.91 1507.34C2042.52 1509.63 2032.9 1510.78 2023.24 1510.78C2005.76 1510.78 1989.81 1506.9 1981.08 1499.78C1978.06 1497.81 1976.43 1494.28 1976.89 1490.71C1977.35 1487.13 1979.82 1484.13 1983.25 1482.99C1986.67 1481.85 1990.45 1482.77 1992.96 1485.35C1996.11 1487.52 1999.66 1489.04 2003.4 1489.83C2002.95 1488.57 2002.73 1487.24 2002.75 1485.91C2002.93 1467.46 1998.47 1449.27 1989.79 1433C1978.44 1440.13 1968.75 1449.6 1961.36 1460.77C1949.02 1480.01 1941.71 1503.15 1949.81 1523.93C1954.34 1534.42 1963.4 1541.44 1973.86 1546.32C1976.79 1546.16 1979.67 1547.01 1982.04 1548.73C1982.62 1549.16 1983.15 1549.64 1983.63 1550.17L1983.99 1550.29C1992.24 1553.22 2001.19 1554.72 2010.59 1557.07C2007.44 1558.44 2003.71 1559.65 2000.42 1560.78C1995.83 1562 1991.16 1562.9 1986.44 1563.45C1986.05 1564.58 1985.5 1565.64 1984.81 1566.62L1982.57 1569.65C1965.54 1592.93 1952.07 1611.33 1945.82 1628.45C1938.22 1649.33 1942.41 1661.04 1947.75 1675.88C1951.89 1686.14 1954.49 1696.96 1955.47 1707.99C1956.21 1720.01 1954.34 1732.57 1952.51 1744.74C1950.1 1760.44 1947.46 1778.24 1953.76 1782.76C1963.14 1789.45 1973.94 1790.91 1982.62 1786.63C1997.19 1779.42 2006.31 1756.88 2007.63 1724.51C2008.69 1698.06 2021.77 1688.1 2029.45 1684.54C2040.6 1679.49 2053.59 1680.72 2063.6 1687.76C2064.01 1688.09 2064.41 1688.44 2064.78 1688.82C2084.02 1708.06 2084.59 1736.92 2085.31 1767.37C2085.37 1781.03 2086.17 1794.68 2087.72 1808.25C2090.49 1828.99 2102.15 1836.35 2112.42 1836.35H2112.61C2124.18 1836.35 2136.9 1826.89 2139.24 1806.28C2140.17 1798.06 2139.6 1775.02 2136.3 1749.36C2132.67 1728.11 2127.76 1707.1 2121.61 1686.44C2119.94 1680.01 2123.48 1673.37 2129.74 1671.16C2136.01 1668.96 2142.93 1671.92 2145.66 1677.97C2153.71 1698.32 2158.67 1723.07 2161.58 1745.75C2163.33 1755.54 2164.99 1765.42 2166.65 1775.5L2167.81 1782.42C2170.45 1798.18 2180.99 1814.7 2193.54 1814.08C2210.04 1813.16 2217.59 1806.57 2216.58 1771.51C2215.77 1754.97 2213.45 1738.53 2209.63 1722.42C2206.86 1713.02 2204.27 1703.18 2201.69 1693.56C2200.11 1687.52 2198.54 1681.53 2196.88 1675.98C2193.68 1666.04 2190.21 1655.66 2186.47 1644.83C2183.81 1638.28 2186.97 1630.82 2193.52 1628.17C2200.07 1625.51 2207.53 1628.66 2210.18 1635.21C2214.78 1646.14 2218.57 1657.4 2221.51 1668.88C2226.74 1685.7 2230.98 1701.33 2234.23 1715.78C2236.82 1724.95 2239.96 1733.95 2243.64 1742.74C2249.92 1757.17 2254.51 1759.58 2255.09 1759.46C2272.07 1756.33 2275.43 1747.86 2276.49 1739.98C2279.74 1715.93 2259.49 1670.66 2222.28 1619.15C2187.07 1569.53 2151.72 1535.38 2139.91 1529.68Z" fill="white" stroke="white" stroke-width="9.62016" stroke-miterlimit="10" stroke-linecap="round"/>
<path d="M2021.05 600.299C2021.05 289.159 1697.07 36.0283 1298.84 36.0283C1277.44 36.0283 1249.97 37.9042 1219.98 40.9827C1383.19 58.0825 1534.1 116.501 1652.7 209.768C1796.61 322.902 1875.98 473.794 1875.98 634.595C1875.98 716.126 1855.68 795.179 1815.64 869.519C1784.22 927.143 1743.46 979.156 1695.02 1023.44L1806.98 1001.94C1807.96 1000.51 1809.14 999.242 1810.49 998.165C1946.26 891.718 2021.05 750.349 2021.05 600.299Z" fill="#DB8C45" stroke="#DB8C45" stroke-width="9.62016" stroke-miterlimit="10" stroke-linecap="round"/>
<path d="M1658.73 1767.22C1658.71 1782.56 1654.61 1797.62 1646.85 1810.85L1723.81 1795.72C1724.91 1795.51 1726.03 1795.41 1727.16 1795.41C1769.46 1795.41 1803.88 1767.32 1803.88 1732.88V1364.52C1801.33 1364.38 1798.79 1364.02 1796.3 1363.44C1769.27 1357.12 1764.48 1327.73 1768.84 1304.25C1772.62 1282.66 1785.32 1263.66 1803.83 1251.92V1038.02L1658.71 1065.77L1658.73 1767.22Z" fill="#B7692A" stroke="#B7692A" stroke-width="9.62016" stroke-miterlimit="10" stroke-linecap="round"/>
<path d="M1456.95 1881.61C1465.47 1876.24 1474.52 1871.77 1483.96 1868.26C1488.69 1866.72 1493.51 1865.46 1498.39 1864.51H1369.84C1374.65 1868.48 1379.7 1872.28 1384.97 1875.88L1385.4 1876.2C1395.38 1883.08 1406.68 1890.84 1417.29 1893.87C1429.82 1897.46 1442.37 1890.1 1456.95 1881.61Z" fill="#FFFDEB"/>
<path d="M1101.7 665.908C1075.49 665.908 1052.35 697.751 1042.56 741.835H1160.82C1151.03 697.751 1128.01 665.908 1101.7 665.908ZM1016.97 699.819C1004.95 678.174 989.169 665.908 973.296 665.908C947.081 665.908 923.944 697.751 914.156 741.835H1004.68C1007.22 727.421 1011.34 713.331 1016.97 699.819Z" fill="#F9F6E1" stroke="#F9F6E1" stroke-width="9.62016" stroke-miterlimit="10" stroke-linecap="round"/>
<path d="M309.096 1217.14L307.869 1218.85L308.927 1218.44C308.96 1218.01 309.016 1217.57 309.096 1217.14ZM2073.77 1476.65C2073.53 1477.15 2073.27 1477.63 2073 1478.11L2074.95 1476.77C2074.56 1476.72 2074.16 1476.72 2073.77 1476.65Z" fill="#FFFDEB"/>
<path d="M248.513 1045.66C238.556 1057.69 231.316 1074.96 225.4 1090.47C223.428 1095.6 221.608 1100.8 219.941 1106.05C216.258 1117.65 213.334 1129.46 211.186 1141.43C211.908 1137.46 215.515 1131.81 217.199 1128.25C219.006 1124.87 221.03 1121.61 223.26 1118.49C228.575 1109.85 234.178 1101.65 240.095 1093.6C244.312 1087.99 248.657 1082.58 253.13 1077.39C256.906 1073.01 261.716 1069.76 264.771 1064.47C267.825 1059.18 260.201 1044.1 257.556 1040.85C254.718 1037.32 251.062 1042.63 248.513 1045.66Z" fill="#090100"/>
<path d="M2157.08 1510.13C2165.02 1497.48 2168.26 1481.07 2165.4 1463.32C2162.45 1444.21 2152.51 1426.87 2137.5 1414.67C2125.48 1405.05 2104.75 1394.56 2073.43 1398.99C2072.99 1399.08 2072.56 1399.19 2072.13 1399.33C2059.92 1366.51 2042.06 1336.07 2019.37 1309.4C1983.56 1266.78 1934.71 1235.9 1878 1233.69C1864.75 1233.14 1851.48 1234.38 1838.56 1237.39V1025.17C1839.74 1023.12 1840.49 1020.84 1840.77 1018.49C1906.55 965.168 1958.62 903.55 1995.39 835.127C2035.46 760.787 2055.76 681.733 2055.76 600.203C2055.76 439.402 1976.39 288.509 1832.52 175.28C1689.78 63.0367 1500.24 1.20312 1298.77 1.20312C1215.84 1.20312 1052.35 27.2016 982.603 44.7344C981.668 44.9558 980.758 45.27 979.885 45.6723C831.35 67.3177 694.575 123.716 585.266 209.672C441.301 322.901 362.031 473.794 362.031 634.595C362.031 716.126 382.329 795.179 422.373 869.519C459.651 938.712 512.394 1000.98 579.23 1054.71V1241.19C562.539 1250.5 546.136 1260.27 527.425 1265.24C505.442 1271.11 482.269 1270.81 460.445 1264.38C441.062 1258.52 423.064 1248.8 407.534 1235.81C431.079 1224.98 446.375 1198.5 448.588 1172.87C452.388 1138.62 432.089 1101.97 394.883 1099.92H388.943C396.158 1074.52 402.123 1052.28 402.074 1032.34C402.074 1000.86 389.256 985.586 378.024 972.094C372.199 965.725 367.337 958.538 363.594 950.761C359.842 942.223 357.581 931.112 355.369 920.362C350.703 897.61 345.412 871.804 322.804 865.575C302.482 859.947 282.376 864.925 269.028 878.827C245.699 903.166 251.832 942.56 261.067 971.349C262.572 975.467 263.448 979.788 263.664 984.167C262.369 984.001 261.09 983.727 259.84 983.35C240.6 973.922 229.441 951.435 215.371 923.031C211.812 915.816 208.156 908.36 204.043 900.64C187.569 869.375 159.622 863.122 139.252 870.842C121.983 877.383 106.303 895.542 106.663 921.877C95.2094 916.016 81.7896 915.359 69.818 920.073C32.2032 936.235 37.6626 968.559 44.8778 989.627C38.9056 989.581 33.0288 991.125 27.8501 994.1C6.66167 1006.61 -2.35722 1025.51 2.47691 1047.35C11.2313 1086.98 63.4206 1129.29 105.653 1157.81C148.319 1186.67 194.64 1210.34 219.075 1216.13C215.972 1230.76 218.57 1247.4 227.396 1262.96C236.741 1279.89 252.04 1292.75 270.326 1299.04C277.985 1301.6 286.01 1302.91 294.088 1302.91C308.731 1302.72 323.094 1298.87 335.864 1291.7C336.081 1291.57 336.29 1291.42 336.489 1291.27C359.729 1319 388.076 1342.02 419.992 1359.06C468.935 1385.52 526.704 1400.5 579.254 1379.68V1767.22C579.254 1820.86 629.231 1864.51 690.679 1864.51H939.144C913.53 1911.53 904.776 1964.97 901.77 2015.47C875.964 1983.58 845.348 1959.44 811.773 1944.84C750.132 1918.02 682.406 1936.01 647.028 1988.58L646.884 1988.85L646.763 1989.02C626.008 2020.14 618.576 2058.76 625.912 2097.73C632.924 2134.65 651.646 2168.33 679.303 2193.78C704.629 2217.02 736.159 2234.98 781.518 2251.98C819.782 2266.41 905.714 2288.49 968.943 2288.49C978.727 2288.57 988.503 2287.91 998.188 2286.52C1000.69 2286.14 1003.03 2285.05 1004.92 2283.37C1008.82 2283.35 1012.51 2281.58 1014.98 2278.56C1049.7 2237.1 1059.64 2167.71 1038.62 2113.57C1030.56 2092.48 1016.2 2074.39 997.49 2061.75C1001.24 2047.53 1005.89 2033.57 1011.42 2019.95C1036.15 1959.46 1075.98 1906.32 1127.1 1865.61C1127.54 1865.24 1127.96 1864.83 1128.35 1864.39H1186.07C1186.27 1865.27 1186.56 1866.14 1186.94 1866.96C1223.01 1944.69 1307.96 1978.53 1396.68 2002.27C1395.86 2005.76 1395.14 2009.2 1394.44 2012.59L1393.79 2015.76C1393.26 2018.31 1392.73 2020.88 1392.21 2023.48C1389.18 2038.59 1386.05 2054.19 1379.12 2066.41C1375.66 2072.54 1369.21 2076.49 1361.54 2079.42L1359.81 2079.54C1357.84 2079.57 1355.92 2080.09 1354.21 2081.06C1353.75 2081.38 1353.35 2081.78 1353.03 2082.24C1349.2 2083.32 1345.21 2084.31 1341.29 2085.27L1338.21 2086.04C1316.16 2091.52 1291.34 2100.47 1274.43 2126.01C1260.57 2146.38 1254.84 2171.2 1258.37 2195.59C1265.22 2240.34 1302.57 2277.36 1353.53 2289.65C1371.01 2293.88 1388.94 2296 1406.92 2295.97C1442.06 2295.85 1476.77 2288.28 1508.75 2273.75C1554.26 2253.1 1591.97 2218.45 1616.38 2174.85C1640 2132.53 1652.89 2085.07 1653.95 2036.61C1655.49 1979.37 1643.1 1936.3 1616.09 1904.89C1597.85 1883.88 1573.07 1869.61 1545.74 1864.39H1547.33C1561.03 1864.41 1574.64 1862.18 1587.62 1857.77L1728.91 1830C1789.54 1829.15 1838.58 1785.84 1838.58 1732.71V1359.93C1850.17 1357.78 1861.94 1356.8 1873.72 1357C1907.2 1357.84 1937 1369.31 1960.66 1393.24C1970.61 1403.23 1979.25 1414.43 1986.39 1426.57C1960.76 1428.84 1937.45 1448.22 1926.61 1471.52C1911.26 1502.36 1917.68 1543.68 1951.93 1558.49C1953.78 1559.26 1955.63 1559.93 1957.49 1560.54C1941.93 1581.87 1928.63 1600.72 1921.89 1619.46C1911.09 1649.04 1917.83 1667.78 1923.74 1684.39C1927.05 1692.4 1929.18 1700.84 1930.04 1709.46C1930.62 1718.74 1928.91 1729.97 1927.3 1740.72C1923.84 1763.69 1919.92 1789.74 1938.99 1803.25C1956.14 1815.52 1976.73 1817.68 1994.04 1809.31C2024.32 1794.52 2032.14 1755.42 2033.39 1725.14C2033.75 1715.93 2036.2 1709.5 2040.12 1707.51C2042.49 1706.44 2045.19 1706.37 2047.6 1707.31C2058.74 1719.53 2059.27 1741.83 2059.87 1767.59C2059.97 1782.15 2060.87 1796.7 2062.56 1811.16C2067.23 1845.97 2090.99 1861.45 2112.66 1861.45H2113.12C2131.61 1861.26 2152.56 1849.6 2161.22 1824.75C2169.94 1834.21 2182.31 1839.47 2195.18 1839.18C2236.69 1836.78 2242.24 1803.71 2242.58 1781.46C2247.9 1784.42 2254.1 1785.37 2260.06 1784.16C2284.26 1779.73 2299.24 1765.08 2302.22 1742.91C2307.66 1702.7 2273.36 1644.98 2243.42 1603.66C2213.36 1562.32 2177.93 1523.98 2157.08 1510.13ZM372.685 1186.58C372.153 1184.98 371.274 1183.53 370.111 1182.32C374.007 1181.72 377.983 1181.92 381.8 1182.9C386.701 1184.59 392.047 1181.99 393.741 1177.09C395.435 1172.19 392.834 1166.84 387.933 1165.15C371.554 1159.47 341.852 1166.93 318.86 1182.44C294.016 1199.27 279.562 1223.32 278.215 1250C277.956 1255.17 281.936 1259.59 287.113 1259.86H287.594C292.588 1259.85 296.706 1255.94 296.974 1250.96C297.271 1244.49 298.603 1238.1 300.918 1232.05C301.092 1232.79 301.325 1233.52 301.616 1234.22C307.306 1247.49 314.239 1260.19 322.323 1272.15C288.436 1288.98 260.634 1274.05 247.887 1251.37C238.267 1234.36 237.353 1212.14 256.69 1200.72C260.507 1198.69 262.904 1194.74 262.931 1190.42C262.958 1186.1 260.609 1182.11 256.818 1180.04C253.026 1177.97 248.403 1178.16 244.785 1180.51C239.484 1183.6 234.743 1187.56 230.763 1192.23C230.025 1192.01 229.268 1191.87 228.503 1191.79C215.443 1190.5 170.469 1170.58 120.011 1136.48C67.3409 1100.91 32.7564 1065.48 27.5134 1041.7C25.7817 1033.93 26.0222 1024.86 40.8854 1016.03C42.0639 1015.34 47.0664 1013.32 59.6928 1018.66C70.5877 1032.2 85.6432 1041.48 100.338 1050.52C109.517 1055.94 118.352 1061.93 126.793 1068.44C132.854 1074.14 138.073 1079.31 142.017 1083.28C146.86 1088.03 154.564 1088.18 159.594 1083.63C164.623 1079.08 165.236 1071.4 160.993 1066.11C155.922 1060.09 150.284 1054.57 144.158 1049.63C118.135 1024.96 95.56 1007.87 76.4319 998.357C75.0117 996.143 73.8038 993.8 72.8243 991.358C59.6928 958.842 64.5991 949.992 79.799 943.474C91.2951 938.52 106.928 950.449 114.84 964.326C125.711 983.422 139.997 996.313 153.802 1008.79C159.165 1013.6 164.36 1018.42 169.339 1023.23C174.534 1029.26 179.271 1034.6 183.047 1038.83C187.604 1044.03 195.465 1044.67 200.802 1040.28C206.138 1035.88 207.02 1028.05 202.793 1022.58C198.29 1016.65 193.405 1011.03 188.17 1005.74C154.908 967.26 135.403 939.434 133.552 931.834C128.742 911.679 137.352 898.548 148.174 894.459C157.794 890.828 171.431 893.618 181.244 912.233C185.164 919.688 188.771 927 192.283 934.07C208.108 965.985 221.768 993.571 249.595 1006.56C250.078 1006.79 250.576 1006.98 251.086 1007.14C267.753 1012.52 277.157 1007.76 282.111 1002.83C294.136 990.805 287.498 970.002 285.31 963.171C275.401 932.315 276.146 907.855 287.378 896.215C294.112 889.216 304.742 886.859 315.854 889.914C323.333 891.982 326.941 909.611 330.14 925.172C332.545 937.197 335.166 949.679 340 960.694C344.715 970.714 350.892 979.978 358.327 988.184C368.428 1000.21 376.413 1009.83 376.437 1032.03C376.437 1050.28 370.16 1072.19 362.175 1099.92L361.141 1103.53C360.803 1104.69 360.641 1105.89 360.66 1107.09C356.477 1109.19 352.458 1111.6 348.634 1114.3C345.917 1116.47 342.838 1118.9 340.337 1121.28C349.957 1120.24 358.904 1118.56 367.658 1118.49H368.019C368.687 1118.81 369.378 1119.07 370.087 1119.28C372.935 1120.1 375.977 1119.9 378.697 1118.73C390.266 1119.67 401.136 1123.15 408.977 1131.4C423.744 1148.24 424.85 1172.43 419.872 1194.68C416.769 1207.81 410.871 1220.11 402.579 1230.76C389.16 1218.69 378.897 1203.52 372.685 1186.58ZM309.096 1217.14C309.016 1217.57 308.96 1218.01 308.927 1218.44L307.869 1218.85L309.096 1217.14ZM927.191 2032.86L927.311 2032.98H927.191V2032.86ZM1014.18 2123.19C1031.16 2166.89 1024.5 2222.02 998.669 2257.01C936.45 2226.76 901.072 2176.03 854.823 2102.9C831.11 2065.38 802.85 2034.64 773.052 2013.91C745.635 1994.91 717.087 1984.23 687.889 1981.99C717.88 1957.15 761.075 1951.33 801.263 1968.82C840.297 1985.79 875.098 2017.64 901.89 2060.88C912.135 2077.46 920.822 2094.96 927.84 2113.14C929.52 2117.54 933.417 2120.7 938.063 2121.44C942.709 2122.19 947.399 2120.39 950.365 2116.74C953.331 2113.09 954.124 2108.13 952.444 2103.74C946.865 2089.3 940.317 2075.25 932.843 2061.7C973.296 2073.58 1001.17 2089.64 1014.21 2123.19H1014.18ZM1385.35 1876.2L1384.92 1875.88C1379.65 1872.28 1374.62 1868.48 1369.79 1864.51H1498.39C1493.51 1865.46 1488.69 1866.72 1483.96 1868.26C1474.5 1871.76 1465.43 1876.24 1456.9 1881.61C1442.33 1890.1 1429.77 1897.46 1417.24 1893.87C1406.68 1890.84 1395.38 1883.08 1385.35 1876.2ZM1595.02 1923.07C1617.32 1949 1627.51 1985.91 1626.14 2035.94C1625.22 2079.83 1613.56 2122.83 1592.18 2161.17C1570.66 2199.63 1537.41 2230.21 1497.28 2248.45C1453.08 2268.41 1404.33 2273.46 1360.03 2262.69C1311.52 2250.9 1289.85 2218.15 1285.76 2191.43C1283.29 2173.87 1287.48 2156.03 1297.5 2141.4C1308.49 2124.88 1324.38 2118.1 1344.87 2113L1347.86 2112.28C1355.84 2110.46 1363.69 2108.14 1371.38 2105.33C1379.15 2104.89 1389.3 2104.41 1395.43 2104.39C1404.3 2104.39 1413.25 2104.58 1422.24 2105.16C1432.31 2105.77 1442.32 2106.98 1452.24 2108.79C1447.95 2105.29 1443.44 2102.08 1438.74 2099.17C1427.11 2092.06 1414.49 2086.71 1401.3 2083.27C1401.99 2082.24 1402.67 2081.2 1403.29 2080.1C1412.41 2064.01 1416.14 2045.39 1419.45 2028.94L1420.97 2021.44L1421.64 2018.19C1422.77 2012.18 1424.21 2006.23 1425.95 2000.37C1426.15 1999.71 1426.31 1999.03 1426.43 1998.35C1464.19 1974.03 1449.95 1934.11 1444.42 1918.77C1453.63 1915.17 1462.49 1910.72 1470.87 1905.49C1477.77 1901.13 1485.08 1897.45 1492.69 1894.5C1529.44 1882.69 1569.7 1893.93 1595.02 1923.07ZM1624.03 1046.27V1767.22C1624.03 1792.55 1605.46 1814.41 1578.84 1824.25L1578.09 1824.39C1576.41 1824.71 1574.79 1825.29 1573.28 1826.1C1564.83 1828.57 1556.06 1829.81 1547.26 1829.8H690.727C648.423 1829.8 614.007 1801.71 614.007 1767.27V1046.31C614.005 1040.99 611.557 1035.96 607.369 1032.68C471.58 926.11 396.88 784.741 396.88 634.595C396.88 323.455 720.863 70.324 1119.09 70.324C1517.32 70.324 1841.23 323.455 1841.23 634.595C1841.23 784.741 1766.45 926.11 1630.67 1032.68C1626.48 1035.96 1624.03 1040.99 1624.03 1046.31V1046.27ZM1803.83 1251.92C1785.3 1263.66 1772.58 1282.65 1768.79 1304.25C1764.43 1327.73 1769.22 1357.17 1796.25 1363.44C1798.74 1364.02 1801.28 1364.38 1803.83 1364.52V1732.83C1803.83 1767.32 1769.41 1795.36 1727.11 1795.36C1725.99 1795.36 1724.87 1795.46 1723.76 1795.68L1646.8 1810.8C1654.56 1797.57 1658.66 1782.51 1658.68 1767.18V1065.72L1803.83 1038.02V1251.92ZM1810.47 998.261C1809.11 999.338 1807.93 1000.61 1806.95 1002.04L1694.98 1023.59C1743.41 979.3 1784.17 927.287 1815.59 869.663C1855.63 795.107 1875.98 716.126 1875.98 634.595C1875.98 473.794 1796.61 322.901 1652.74 209.672C1534.1 116.405 1383.19 57.9861 1219.98 40.8863C1249.97 37.8078 1277.44 35.9319 1298.84 35.9319C1697.07 35.9319 2021.05 289.062 2021.05 600.203C2021.05 750.349 1946.25 891.718 1810.49 998.261H1810.47ZM2073.77 1476.65H2074.95L2073 1477.99C2073.19 1477.63 2073.53 1477.15 2073.77 1476.65ZM2276.92 1739.78C2275.87 1747.67 2272.5 1756.14 2255.52 1759.26C2254.94 1759.26 2250.35 1756.86 2244.07 1742.55C2240.4 1733.76 2237.26 1724.76 2234.67 1715.59C2231.46 1701.16 2227.22 1685.53 2221.94 1668.69C2219 1657.2 2215.21 1645.95 2210.62 1635.02C2207.96 1628.47 2200.5 1625.32 2193.95 1627.97C2187.4 1630.63 2184.25 1638.09 2186.9 1644.64C2190.72 1655.46 2194.19 1665.84 2197.32 1675.78C2198.86 1681.41 2200.42 1687.33 2202.13 1693.37C2204.7 1702.99 2207.3 1712.94 2210.06 1722.23C2213.88 1738.34 2216.21 1754.77 2217.01 1771.31C2218.14 1806.38 2210.47 1812.97 2193.97 1813.88C2181.42 1814.51 2170.89 1797.98 2168.24 1782.23L2167.09 1775.31C2165.43 1765.23 2163.77 1755.34 2162.01 1745.56C2159.1 1722.88 2154.15 1698.13 2146.09 1677.78C2143.36 1671.72 2136.45 1668.77 2130.18 1670.97C2123.91 1673.18 2120.37 1679.81 2122.04 1686.25C2128.2 1706.9 2133.1 1727.91 2136.73 1749.16C2140.03 1774.82 2140.61 1797.86 2139.67 1806.09C2137.26 1826.7 2124.61 1836.03 2113.04 1836.15H2112.85C2102.68 1836.15 2090.92 1828.79 2088.15 1808.06C2086.6 1794.49 2085.8 1780.84 2085.75 1767.18C2085.03 1736.68 2084.33 1707.84 2065.21 1688.63C2064.84 1688.25 2064.44 1687.9 2064.03 1687.57C2054.02 1680.53 2041.03 1679.3 2029.88 1684.35C2022.21 1687.91 2009.12 1697.81 2008.06 1724.32C2006.74 1756.69 1997.63 1779.32 1983.05 1786.44C1974.32 1790.72 1963.52 1789.25 1954.19 1782.57C1947.89 1778.05 1950.56 1760.25 1952.94 1744.55C1954.77 1732.38 1956.64 1719.8 1955.9 1707.8C1954.93 1696.77 1952.33 1685.95 1948.18 1675.69C1942.84 1660.85 1938.56 1649.23 1946.25 1628.26C1952.51 1611.14 1965.98 1592.74 1983 1569.46L1985.24 1566.43C1985.93 1565.45 1986.48 1564.38 1986.88 1563.25C1991.59 1562.7 1996.26 1561.81 2000.85 1560.58C2004.14 1559.45 2007.87 1558.18 2011.02 1556.88C2001.62 1554.47 1992.67 1553.03 1984.42 1550.1L1984.06 1549.98C1983.58 1549.45 1983.05 1548.96 1982.47 1548.53C1980.11 1546.81 1977.22 1545.96 1974.3 1546.13C1963.72 1541.32 1954.65 1534.1 1950.25 1523.74C1942.14 1502.96 1949.45 1479.75 1961.79 1460.58C1969.19 1449.41 1978.88 1439.94 1990.22 1432.8C1998.9 1449.08 2003.36 1467.27 2003.18 1485.71C2003.16 1487.05 2003.38 1488.38 2003.83 1489.63C2000.09 1488.85 1996.54 1487.33 1993.39 1485.16C1990.88 1482.57 1987.1 1481.65 1983.68 1482.79C1980.25 1483.93 1977.78 1486.93 1977.32 1490.51C1976.86 1494.09 1978.49 1497.62 1981.51 1499.59C1990.24 1506.81 2006.19 1510.58 2023.67 1510.58C2033.33 1510.59 2042.96 1509.43 2052.34 1507.14C2081.44 1499.93 2103.26 1482.4 2113.77 1457.72C2115.56 1453 2113.31 1447.7 2108.66 1445.72C2104.01 1443.75 2098.63 1445.79 2096.47 1450.36C2094 1456.22 2090.64 1461.65 2086.49 1466.47C2086.49 1466.47 2086.49 1466.47 2086.49 1466.35C2085.71 1451.3 2083.39 1436.36 2079.59 1421.76C2117.37 1417.53 2138.47 1441 2142.65 1466.88C2145.78 1486.12 2139.02 1507.34 2116.94 1511.38C2110.97 1512.47 2106.82 1517.93 2107.37 1523.97C2107.91 1530.01 2112.97 1534.64 2119.03 1534.66C2119.75 1534.65 2120.47 1534.59 2121.17 1534.46C2127.21 1533.37 2133.02 1531.28 2138.37 1528.28C2138.98 1528.75 2139.64 1529.16 2140.34 1529.49C2152.15 1535.19 2187.5 1569.36 2223.15 1618.76C2259.92 1670.54 2280.17 1715.64 2276.92 1739.78Z" fill="#090100"/>
<path d="M1037.44 893.714C1053.72 920.458 1076.33 936.788 1101.7 936.788C1152.42 936.788 1192.15 871.516 1192.15 788.205C1192.15 704.894 1152.42 639.646 1101.7 639.646C1076.33 639.646 1053.6 655.976 1037.41 682.744C1020.58 655.206 997.779 639.646 973.296 639.646C922.573 639.646 882.842 704.894 882.842 788.205C882.842 871.516 922.573 936.788 973.296 936.788C997.899 936.692 1020.7 921.18 1037.44 893.714ZM1165.8 788.205C1165.8 854.464 1136.43 910.429 1101.7 910.429C1090.45 910.429 1079.79 904.537 1070.44 894.387H1070.7C1087.13 894.387 1101.56 874.233 1109.78 843.882L1069.47 825.724L1114.69 815.021C1116.04 805.205 1116.85 795.321 1117.09 785.415C1117.09 779.595 1116.88 773.895 1116.49 768.315H1164.91C1165.46 774.689 1165.8 781.351 1165.8 788.109V788.205ZM1101.7 666.005C1127.92 666.005 1151.03 697.848 1160.82 741.932H1042.56C1052.35 697.751 1075.49 665.909 1101.7 665.909V666.005ZM914.108 741.932C923.896 697.848 947.033 666.005 973.248 666.005C989.121 666.005 1004.85 678.271 1016.92 699.916C1011.3 713.427 1007.17 727.518 1004.63 741.932H914.108ZM944.435 826.71L986.884 816.681C988.049 806.895 988.627 797.049 988.616 787.195C988.616 780.749 988.375 774.424 987.918 768.291H1001.43C1001.05 773.919 1000.81 779.619 1000.81 785.391C1000.81 817.426 1006.99 848.595 1018.32 874.017C1006.08 897.249 989.842 910.429 973.248 910.429C962.641 910.429 952.564 905.21 943.642 895.999C959.9 894.893 974.041 874.185 981.93 843.521L944.435 826.71ZM1210.89 969.136C1194.83 958.87 1175.34 955.41 1156.73 959.516C1142.73 962.642 1129.98 970.387 1117.65 977.866C1107.06 984.288 1097.06 990.373 1087.08 993.211C1071.87 997.329 1056.22 999.534 1040.47 999.776C1038.31 999.11 1036.01 999.019 1033.81 999.512L1032.58 999.849C987.918 999.993 962.232 1011.54 956.244 1034.19C948.331 1064.23 981.569 1098.17 1018.03 1118.49C1025.48 1122.64 1033.19 1126.3 1041.12 1129.43C1063.94 1138.21 1088.19 1142.66 1112.64 1142.56C1118.1 1142.56 1123.55 1142.35 1129 1141.91C1161.71 1139.22 1189.65 1128.85 1209.81 1111.88C1229.96 1094.9 1251.03 1064.18 1240.11 1011.42C1236.47 993.958 1225.94 978.71 1210.89 969.136ZM1030.68 1095.74C997.442 1077.22 978.37 1052.45 981.425 1040.85C983.204 1034.07 996.119 1026.95 1026.37 1025.99L1043.35 1102.11C1039.07 1100.19 1034.85 1098.06 1030.68 1095.74ZM1072.21 1111.95L1052.97 1025.37C1065.5 1024.5 1077.93 1022.52 1090.11 1019.45L1111.75 1116.78C1098.43 1116.69 1085.17 1115.07 1072.21 1111.97V1111.95ZM1137.97 1114.76L1114.62 1010.17V1009.76C1120.32 1006.75 1125.82 1003.41 1131.26 1000.14C1136.69 996.866 1141.34 994.052 1146.17 991.479C1146.2 992.289 1146.3 993.094 1146.48 993.884L1170.53 1101.61C1170.83 1102.8 1171.28 1103.95 1171.88 1105.02C1161.06 1109.78 1149.66 1113.06 1137.97 1114.79V1114.76ZM1194.61 1090.57L1171.78 988.256C1171.44 986.723 1170.82 985.264 1169.96 983.951C1179.4 983.432 1188.77 985.888 1196.75 990.974C1205.93 996.791 1212.37 1006.07 1214.62 1016.71C1221.14 1048.17 1214.38 1072.99 1194.61 1090.59V1090.57Z" fill="#090100"/>
</g>
</svg>
