<svg width="1440" height="739" viewBox="0 0 1440 739" fill="none" xmlns="http://www.w3.org/2000/svg">
<mask id="mask0_0_1" style="mask-type:luminance" maskUnits="userSpaceOnUse" x="0" y="27" width="726" height="712">
<path d="M0 27H726V738.175H0V27Z" fill="white"/>
</mask>
<g mask="url(#mask0_0_1)">
<path d="M149.984 226.424C149.984 130.099 252.072 51.7328 377.555 51.7328C503.038 51.7328 605.104 130.099 605.104 226.424C605.104 272.907 581.543 316.673 538.755 349.665C537.435 350.682 536.664 352.238 536.663 353.886V577.071C536.663 587.748 525.819 596.43 512.488 596.43H242.599C239.825 596.432 237.064 596.046 234.4 595.283C233.925 595.032 233.414 594.854 232.884 594.754L232.649 594.71C224.26 591.664 218.409 584.896 218.409 577.056V353.886C218.409 352.238 217.637 350.682 216.318 349.665C173.545 316.673 149.984 272.907 149.984 226.424Z" fill="#F9F6E1" stroke="#F9F6E1" stroke-width="9.62016" stroke-miterlimit="10" stroke-linecap="round"/>
<path d="M374.007 267.317C374.084 270.384 374.337 273.444 374.765 276.483L389.012 279.796L376.311 285.418C378.903 294.822 383.45 301.054 388.626 301.054H388.709C385.776 304.196 382.419 306.02 378.857 306.02C367.914 306.02 358.661 288.694 358.661 268.181C358.661 266.089 358.767 264.026 358.949 262.016H374.196C374.075 263.751 374.007 265.515 374.007 267.317ZM428.64 301.627C425.828 304.449 422.653 306.094 419.311 306.094C414.081 306.094 408.966 302.014 405.109 294.822C408.678 286.952 410.626 277.302 410.626 267.384C410.626 265.597 410.55 263.833 410.429 262.09H414.688C414.544 263.989 414.468 265.947 414.468 267.943C414.464 270.993 414.647 274.042 415.014 277.071L428.389 280.176L416.575 285.388C419.06 294.837 423.517 301.247 428.64 301.627ZM255.633 610.75C258.03 611.663 260.332 612.802 262.506 614.152C265.15 615.773 267.94 617.149 270.842 618.262C269.099 623.013 264.613 635.387 276.511 642.9C276.547 643.112 276.598 643.321 276.663 643.526C277.211 645.34 277.664 647.182 278.019 649.043L278.254 650.085L278.732 652.408C279.777 657.501 280.952 663.264 283.824 668.245C284.021 668.588 284.233 668.908 284.453 669.228C280.296 670.291 276.32 671.95 272.654 674.15C271.172 675.051 269.752 676.046 268.402 677.128C271.527 676.569 274.682 676.193 277.852 676.004C280.687 675.825 283.506 675.75 286.302 675.765C288.22 675.765 291.418 675.922 293.881 676.056C296.303 676.926 298.778 677.645 301.292 678.208L302.232 678.431C308.689 680.009 313.698 682.109 317.162 687.224C320.318 691.753 321.637 697.277 320.86 702.711C319.571 710.984 312.743 721.125 297.458 724.773C283.498 728.109 268.137 726.545 254.208 720.365C241.55 714.701 231.068 705.206 224.296 693.27C217.568 681.415 213.894 668.123 213.595 654.553C213.163 639.066 216.377 627.636 223.402 619.61C231.374 610.588 244.052 607.103 255.633 610.75ZM432.088 662.475C429.722 666.671 427.649 671.019 425.881 675.49C425.056 677.581 426.113 679.933 428.242 680.743C430.37 681.553 432.764 680.515 433.588 678.423C435.81 672.793 438.557 667.377 441.796 662.244C450.238 648.842 461.204 638.999 473.504 633.742C486.167 628.329 499.778 630.131 509.228 637.822C500.028 638.515 491.04 641.82 482.393 647.703C473.011 654.098 464.106 663.614 456.627 675.252C442.053 697.894 430.905 713.597 411.3 722.964C403.161 712.13 401.062 695.065 406.412 681.536C410.527 671.127 419.311 666.153 432.088 662.475ZM597.152 374.595C599.623 372.041 603.048 370.961 606.694 370.671C607.551 371.034 608.509 371.094 609.407 370.842C609.63 370.777 609.848 370.695 610.058 370.596H610.157C612.915 370.596 615.727 371.14 618.766 371.46C618.008 370.716 617.008 369.971 616.151 369.301C614.947 368.465 613.68 367.718 612.362 367.067C612.368 366.694 612.317 366.323 612.211 365.965L611.885 364.848C609.369 356.263 607.338 349.48 607.391 343.829C607.391 336.957 609.914 334.001 613.097 330.256C615.417 327.706 617.34 324.833 618.804 321.73C620.32 318.32 621.13 314.463 621.911 310.733C622.919 305.916 624.056 300.458 626.413 299.818C629.914 298.872 633.233 299.602 635.385 301.768C638.924 305.395 639.175 312.937 636.037 322.497C635.348 324.612 633.241 331.045 637.045 334.775C638.606 336.264 641.592 337.753 646.821 336.108C646.982 336.059 647.139 336 647.291 335.929C656.059 331.909 660.364 323.368 665.35 313.488C666.457 311.299 667.624 309.021 668.829 306.727C671.921 300.964 676.24 300.101 679.249 301.225C682.659 302.491 685.403 306.556 683.857 312.796C683.273 315.148 677.127 323.726 666.646 335.676C664.997 337.313 663.457 339.054 662.039 340.888C660.707 342.581 660.984 345.008 662.666 346.368C664.347 347.729 666.825 347.531 668.26 345.921C669.45 344.611 670.943 342.943 672.58 341.089C674.149 339.548 675.786 338.111 677.476 336.622C681.826 332.757 686.327 328.767 689.753 322.855C692.246 318.559 697.172 314.865 700.794 316.399C705.584 318.417 707.13 321.157 702.992 331.224C702.683 331.979 702.303 332.705 701.855 333.39C695.838 336.334 688.725 341.625 680.515 349.264C678.584 350.794 676.808 352.502 675.21 354.365C673.873 356.003 674.066 358.381 675.651 359.79C677.235 361.199 679.663 361.151 681.189 359.681C682.432 358.452 684.076 356.852 685.986 355.087C688.646 353.071 691.43 351.219 694.322 349.54C698.953 346.74 703.697 343.866 707.13 339.674C711.109 338.022 712.685 338.647 713.056 338.863C717.74 341.573 717.815 344.402 717.27 346.807C715.618 354.171 704.72 365.139 688.123 376.151C672.209 386.701 658.052 392.866 653.937 393.276C653.696 393.298 653.457 393.343 653.225 393.41C651.971 391.965 650.477 390.739 648.807 389.784C647.666 389.054 646.21 388.998 645.015 389.638C643.82 390.279 643.08 391.513 643.089 392.85C643.097 394.187 643.853 395.412 645.055 396.038C651.118 399.575 650.838 406.462 647.829 411.719C643.813 418.74 635.052 423.342 624.374 418.152C626.924 414.449 629.111 410.518 630.907 406.41C630.998 406.193 631.072 405.969 631.126 405.74C631.856 407.613 632.276 409.589 632.369 411.592C632.454 413.136 633.751 414.346 635.325 414.347H635.476C637.108 414.263 638.362 412.898 638.28 411.295C637.856 403 633.301 395.577 625.473 390.38C618.228 385.577 608.869 383.269 603.708 385.026C602.163 385.55 601.344 387.206 601.878 388.723C602.411 390.24 604.096 391.045 605.64 390.521C606.843 390.218 608.096 390.157 609.323 390.342C608.957 390.717 608.68 391.167 608.512 391.66C606.573 396.955 603.335 401.699 599.085 405.472C596.472 402.177 594.614 398.368 593.636 394.303C592.12 387.252 592.469 379.755 597.152 374.595ZM642.623 353.791C643.585 355.43 645.101 356.435 646.291 357.79C647.7 359.398 649.069 361.071 650.398 362.808C652.262 365.265 654.028 367.842 655.703 370.515C656.405 371.481 657.043 372.49 657.613 373.537C658.143 374.669 659.28 376.389 659.507 377.618C658.832 373.904 657.91 370.238 656.749 366.643C656.244 365.015 655.67 363.406 655.029 361.818C653.164 357.015 650.883 351.655 647.746 347.947C646.942 347.008 645.791 345.363 644.881 346.458C644.01 347.463 641.668 352.258 642.57 353.747L642.623 353.791ZM51.706 497.769C51.9261 497.667 52.1344 497.542 52.3274 497.396C54.0136 498.324 55.8446 498.971 57.7459 499.31C57.9687 499.348 58.1943 499.368 58.4204 499.37C60.3318 499.366 61.9252 497.932 62.0963 496.061C62.2674 494.191 60.9597 492.501 59.0798 492.162C52.1228 490.911 49.9857 484.337 50.9785 478.388C52.2971 470.406 58.9433 463.109 70.849 464.42C69.6507 468.937 68.922 473.562 68.674 478.224C68.674 478.224 68.674 478.224 68.674 478.261C67.3683 476.769 66.3071 475.086 65.5289 473.272C64.8491 471.859 63.1538 471.225 61.6893 471.837C60.2248 472.45 59.5143 474.089 60.0801 475.551C63.3918 483.19 70.2654 488.625 79.4353 490.852C82.3921 491.561 85.425 491.918 88.4687 491.916C93.9782 491.916 99.0027 490.718 101.754 488.514C102.706 487.903 103.219 486.811 103.074 485.703C102.928 484.595 102.15 483.666 101.071 483.313C99.992 482.96 98.8025 483.245 98.0099 484.046C97.0177 484.717 95.8998 485.188 94.7209 485.431C94.8631 485.042 94.9324 484.631 94.9255 484.218C94.8687 478.507 96.2733 472.875 99.0102 467.837C102.584 470.046 105.638 472.977 107.968 476.437C111.856 482.393 114.159 489.556 111.605 495.989C110.181 499.236 107.324 501.41 104.027 502.921C103.107 502.87 102.196 503.133 101.451 503.666C101.27 503.799 101.102 503.948 100.95 504.113L100.837 504.15C98.2373 505.058 95.4181 505.52 92.455 506.249C93.4477 506.674 94.6224 507.046 95.6606 507.396C97.106 507.776 98.5775 508.052 100.064 508.222C100.188 508.572 100.361 508.903 100.579 509.205L101.284 510.143C106.649 517.351 110.893 523.047 112.864 528.348C115.258 534.811 113.94 538.437 112.257 543.031C110.95 546.208 110.131 549.558 109.825 552.971C109.59 556.694 110.181 560.581 110.757 564.348C111.515 569.21 112.348 574.72 110.363 576.12C107.407 578.19 104.004 578.644 101.269 577.319C96.6761 575.085 93.8039 568.108 93.3871 558.086C93.0537 549.896 88.931 546.814 86.5135 545.712C82.9994 544.15 78.9068 544.529 75.7521 546.709C75.6213 546.811 75.4973 546.92 75.3808 547.037C69.3181 552.993 69.1363 561.928 68.9089 571.355C68.8927 575.584 68.6397 579.81 68.1511 584.012C67.2796 590.43 63.6041 592.709 60.3681 592.709H60.3074C56.6622 592.709 52.6533 589.783 51.9182 583.402C51.6226 580.855 51.8045 573.722 52.8427 565.778C53.9867 559.2 55.5329 552.695 57.4731 546.3C57.9978 544.308 56.8836 542.254 54.9087 541.571C52.9338 540.888 50.7554 541.804 49.8948 543.679C47.356 549.978 45.7948 557.64 44.8779 564.661C44.3246 567.691 43.8017 570.751 43.2788 573.871L42.9151 576.016C42.0814 580.892 38.7621 586.008 34.8062 585.814C29.6074 585.531 27.2278 583.491 27.5461 572.635C27.801 567.514 28.5341 562.427 29.7362 557.439C30.6078 554.527 31.4262 551.482 32.2371 548.504C32.7373 546.635 33.2298 544.781 33.7527 543.061C34.7632 539.983 35.857 536.769 37.0342 533.419C37.8713 531.391 36.8772 529.081 34.8138 528.259C32.7504 527.436 30.3991 528.413 29.562 530.44C28.1138 533.824 26.9207 537.309 25.9925 540.864C24.3454 546.071 23.0092 550.911 21.9836 555.383C21.1676 558.222 20.1781 561.009 19.0204 563.73C17.0424 568.198 15.595 568.942 15.4131 568.905C10.0628 567.937 9.00176 565.316 8.66831 562.874C7.64523 555.428 14.0263 541.415 25.75 525.467C36.8448 510.106 47.985 499.533 51.706 497.769Z" fill="white" stroke="white" stroke-width="9.62016" stroke-miterlimit="10" stroke-linecap="round"/>
<path d="M89.1582 212.844C89.1582 116.52 191.247 38.1537 316.729 38.1537C323.474 38.1537 332.129 38.7344 341.579 39.6875C290.152 44.9814 242.598 63.0669 205.229 91.9413C159.88 126.966 134.871 173.68 134.871 223.462C134.871 248.703 141.267 273.177 153.885 296.191C163.785 314.031 176.628 330.134 191.891 343.844L156.613 337.187C156.306 336.746 155.933 336.352 155.507 336.018C112.727 303.064 89.1582 259.298 89.1582 212.844Z" fill="#DB8C45" stroke="#DB8C45" stroke-width="9.62016" stroke-miterlimit="10" stroke-linecap="round"/>
<path d="M203.327 574.109C203.335 578.858 204.627 583.519 207.07 587.616L182.819 582.932C182.472 582.867 182.12 582.834 181.766 582.836C168.436 582.836 157.591 574.139 157.591 563.477V449.439C158.395 449.394 159.194 449.282 159.978 449.104C168.496 447.145 170.004 438.047 168.633 430.78C167.441 424.095 163.438 418.214 157.606 414.578V348.356L203.334 356.948L203.327 574.109Z" fill="#B7692A" stroke="#B7692A" stroke-width="9.62016" stroke-miterlimit="10" stroke-linecap="round"/>
<path d="M266.909 609.521C264.225 607.859 261.373 606.474 258.399 605.389C256.909 604.911 255.39 604.523 253.852 604.227H294.358C292.842 605.456 291.251 606.632 289.591 607.749L289.455 607.846C286.31 609.975 282.748 612.38 279.406 613.318C275.458 614.428 271.502 612.149 266.909 609.521Z" fill="#FFFDEB"/>
<path d="M378.85 233.156C387.11 233.156 394.4 243.014 397.485 256.662H360.222C363.306 243.014 370.559 233.156 378.85 233.156ZM405.548 243.655C409.337 236.954 414.309 233.156 419.311 233.156C427.571 233.156 434.861 243.014 437.946 256.662H409.421C408.62 252.2 407.321 247.838 405.548 243.655Z" fill="#F9F6E1" stroke="#F9F6E1" stroke-width="9.62016" stroke-miterlimit="10" stroke-linecap="round"/>
<path d="M628.603 403.811L628.989 404.34L628.656 404.214C628.646 404.079 628.628 403.944 628.603 403.811ZM72.5464 484.15C72.6222 484.307 72.7056 484.456 72.7889 484.605L72.1751 484.188C72.2963 484.173 72.4252 484.173 72.5464 484.15Z" fill="#FFFDEB"/>
<path d="M647.693 350.724C650.83 354.447 653.111 359.793 654.976 364.595C655.597 366.183 656.17 367.792 656.696 369.42C657.856 373.008 658.778 376.667 659.454 380.372C659.227 379.144 658.09 377.394 657.56 376.292C656.99 375.245 656.352 374.235 655.65 373.269C653.975 370.596 652.209 368.057 650.345 365.563C649.016 363.826 647.647 362.153 646.238 360.545C645.048 359.189 643.532 358.184 642.57 356.546C641.607 354.908 644.01 350.24 644.843 349.235C645.737 348.14 646.889 349.786 647.693 350.724Z" fill="#090100"/>
<path d="M46.2949 494.515C43.794 490.598 42.7709 485.52 43.6728 480.025C44.6042 474.109 47.7366 468.741 52.4637 464.963C56.2529 461.985 62.7855 458.738 72.6525 460.108C72.7909 460.135 72.9275 460.17 73.0618 460.212C76.9114 450.052 82.5383 440.631 89.6887 432.373C100.973 419.179 116.365 409.619 134.234 408.934C138.411 408.762 142.592 409.148 146.663 410.081V344.38C146.291 343.743 146.054 343.039 145.966 342.31C125.239 325.803 108.832 306.727 97.2444 285.544C84.6188 262.53 78.2226 238.056 78.2226 212.815C78.2226 163.033 103.231 116.319 148.565 81.2642C193.543 46.5152 253.268 27.3723 316.752 27.3723C342.883 27.3723 394.4 35.4211 416.378 40.849C416.672 40.9176 416.959 41.0148 417.234 41.1394C464.038 47.8405 507.136 65.3006 541.58 91.9115C586.944 126.966 611.923 173.68 611.923 223.462C611.923 248.703 605.527 273.177 592.909 296.191C581.162 317.613 564.543 336.89 543.482 353.523V411.257C548.742 414.139 553.91 417.162 559.806 418.703C566.733 420.517 574.035 420.425 580.912 418.435C587.02 416.621 592.691 413.612 597.584 409.589C590.165 406.239 585.345 398.041 584.648 390.104C583.451 379.501 589.847 368.154 601.571 367.521H603.443C601.169 359.658 599.29 352.771 599.305 346.599C599.305 336.852 603.344 332.124 606.883 327.947C608.719 325.976 610.251 323.751 611.43 321.343C612.612 318.7 613.325 315.26 614.022 311.932C615.492 304.888 617.159 296.899 624.283 294.97C630.687 293.228 637.022 294.769 641.228 299.073C648.579 306.608 646.647 318.804 643.737 327.717C643.262 328.991 642.987 330.329 642.918 331.685C643.326 331.634 643.729 331.549 644.123 331.432C650.186 328.513 653.702 321.551 658.136 312.758C659.257 310.524 660.409 308.216 661.705 305.826C666.896 296.147 675.702 294.211 682.121 296.601C687.563 298.626 692.504 304.248 692.39 312.401C695.999 310.586 700.228 310.383 704 311.842C715.853 316.846 714.132 326.853 711.859 333.375C713.741 333.361 715.593 333.839 717.224 334.76C723.901 338.632 726.743 344.484 725.22 351.245C722.461 363.515 706.016 376.612 692.708 385.443C679.264 394.378 664.668 401.704 656.969 403.499C657.946 408.026 657.128 413.178 654.347 417.995C651.402 423.237 646.581 427.217 640.819 429.164C638.406 429.959 635.877 430.364 633.332 430.363C628.718 430.305 624.192 429.112 620.168 426.893C620.099 426.853 620.034 426.808 619.971 426.759C612.648 435.345 603.716 442.471 593.659 447.748C578.237 455.939 560.034 460.577 543.475 454.129V574.109C543.475 590.713 527.727 604.227 508.364 604.227H430.072C438.143 618.783 440.901 635.328 441.849 650.964C449.98 641.091 459.628 633.615 470.207 629.096C489.63 620.794 510.971 626.363 522.119 642.639L522.164 642.721L522.202 642.773C528.742 652.408 531.084 664.366 528.773 676.428C526.563 687.859 520.664 698.287 511.949 706.166C503.969 713.358 494.033 718.92 479.741 724.184C467.683 728.652 440.606 735.487 420.682 735.487C417.599 735.512 414.519 735.308 411.467 734.876C410.678 734.76 409.941 734.421 409.345 733.901C408.116 733.894 406.954 733.348 406.177 732.412C395.234 719.576 392.104 698.095 398.728 681.335C401.267 674.805 405.792 669.203 411.687 665.289C410.506 660.888 409.041 656.566 407.299 652.348C399.506 633.622 386.955 617.172 370.847 604.569C370.706 604.452 370.574 604.326 370.453 604.19H352.265C352.202 604.464 352.111 604.731 351.992 604.986C340.624 629.051 313.857 639.527 285.901 646.876C286.158 647.956 286.386 649.02 286.605 650.07L286.81 651.053C286.977 651.842 287.144 652.639 287.31 653.443C288.265 658.119 289.25 662.951 291.433 666.734C292.524 668.632 294.555 669.853 296.973 670.762L297.518 670.799C298.137 670.808 298.744 670.97 299.284 671.268C299.428 671.368 299.553 671.492 299.655 671.633C300.86 671.968 302.118 672.273 303.354 672.571L304.324 672.809C311.273 674.507 319.094 677.277 324.422 685.184C328.789 691.491 330.595 699.175 329.484 706.724C327.324 720.581 315.555 732.04 299.496 735.844C293.988 737.154 288.34 737.811 282.672 737.803C271.602 737.765 260.665 735.42 250.585 730.923C236.247 724.531 224.364 713.803 216.672 700.306C209.231 687.203 205.166 672.51 204.835 657.508C204.35 639.788 208.253 626.452 216.763 616.728C222.511 610.224 230.318 605.808 238.93 604.19H238.43C234.113 604.197 229.824 603.505 225.736 602.142L181.213 593.542C162.108 593.282 146.655 579.872 146.655 563.425V448.016C143.005 447.351 139.296 447.047 135.583 447.108C125.034 447.369 115.645 450.92 108.188 458.329C105.054 461.42 102.33 464.888 100.079 468.648C108.157 469.348 115.501 475.35 118.919 482.564C123.754 492.11 121.73 504.901 110.939 509.488C110.355 509.726 109.771 509.935 109.188 510.121C114.091 516.725 118.282 522.563 120.404 528.363C123.807 537.521 121.685 543.321 119.82 548.466C118.778 550.944 118.109 553.557 117.835 556.225C117.653 559.099 118.191 562.576 118.699 565.904C119.79 573.015 121.025 581.078 115.016 585.263C109.612 589.06 103.125 589.73 97.6687 587.139C88.1276 582.56 85.6646 570.453 85.2705 561.079C85.1568 558.228 84.3839 556.24 83.1486 555.622C82.4033 555.29 81.5533 555.269 80.7917 555.562C77.2829 559.344 77.1162 566.247 76.9267 574.221C76.8945 578.73 76.6111 583.234 76.0779 587.712C74.6077 598.486 67.1203 603.281 60.2922 603.281H60.1482C54.3204 603.222 47.7197 599.611 44.9914 591.919C42.242 594.848 38.3448 596.475 34.2908 596.387C21.2105 595.642 19.4598 585.404 19.3537 578.517C17.6772 579.432 15.7233 579.727 13.8443 579.351C6.22045 577.981 1.49909 573.447 0.559374 566.582C-1.15334 554.132 9.6534 536.263 19.0885 523.471C28.5615 510.672 39.7244 498.803 46.2949 494.515ZM608.566 394.348C608.733 393.855 609.01 393.405 609.376 393.03C608.149 392.845 606.896 392.906 605.693 393.209C604.149 393.733 602.464 392.928 601.931 391.411C601.397 389.893 602.216 388.238 603.761 387.714C608.922 385.957 618.281 388.265 625.526 393.067C633.354 398.279 637.909 405.725 638.333 413.982C638.415 415.585 637.161 416.951 635.529 417.035H635.378C633.804 417.033 632.507 415.824 632.422 414.28C632.329 412.277 631.909 410.301 631.179 408.428C631.125 408.657 631.051 408.881 630.96 409.098C629.167 413.205 626.982 417.137 624.435 420.84C635.113 426.052 643.873 421.428 647.89 414.407C650.921 409.143 651.209 402.263 645.116 398.726C643.913 398.1 643.158 396.875 643.149 395.538C643.141 394.2 643.881 392.967 645.076 392.326C646.271 391.685 647.727 391.741 648.867 392.472C650.538 393.427 652.032 394.653 653.286 396.098C653.518 396.031 653.757 395.986 653.998 395.964C658.113 395.562 672.285 389.397 688.184 378.839C704.781 367.826 715.678 356.859 717.33 349.495C717.876 347.09 717.8 344.283 713.117 341.551C712.746 341.335 711.169 340.709 707.191 342.362C703.758 346.554 699.014 349.428 694.383 352.228C691.491 353.906 688.707 355.759 686.047 357.775C684.137 359.539 682.493 361.14 681.25 362.369C679.724 363.839 677.296 363.887 675.711 362.478C674.127 361.069 673.933 358.691 675.27 357.052C676.868 355.189 678.645 353.481 680.575 351.952C688.775 344.313 695.889 339.022 701.916 336.078C702.364 335.393 702.744 334.667 703.053 333.911C707.191 323.845 705.645 321.105 700.855 319.087C697.233 317.553 692.307 321.246 689.813 325.542C686.388 331.454 681.886 335.445 677.536 339.309C675.846 340.799 674.209 342.288 672.641 343.777C671.004 345.646 669.511 347.299 668.321 348.609C666.885 350.218 664.408 350.416 662.727 349.056C661.045 347.696 660.767 345.269 662.099 343.576C663.518 341.742 665.057 340.001 666.707 338.364C677.188 326.451 683.334 317.836 683.917 315.483C685.433 309.244 682.72 305.178 679.31 303.913C676.278 302.788 671.981 303.652 668.889 309.415C667.654 311.723 666.517 313.987 665.411 316.176C660.424 326.056 656.12 334.596 647.352 338.617C647.2 338.687 647.043 338.747 646.882 338.796C641.63 340.463 638.667 338.989 637.106 337.463C633.317 333.74 635.408 327.3 636.098 325.185C639.22 315.632 638.985 308.06 635.446 304.456C633.324 302.289 629.974 301.56 626.473 302.505C624.116 303.146 622.98 308.603 621.972 313.421C621.214 317.144 620.388 321.008 618.865 324.418C617.379 327.52 615.433 330.388 613.09 332.928C609.907 336.651 607.391 339.63 607.383 346.502C607.383 352.153 609.361 358.936 611.877 367.521L612.203 368.638C612.31 368.996 612.361 369.367 612.355 369.74C613.673 370.391 614.939 371.137 616.144 371.974C617 372.644 617.97 373.396 618.758 374.133C615.727 373.813 612.908 373.292 610.149 373.269H610.036C609.825 373.368 609.607 373.45 609.384 373.515C608.487 373.767 607.528 373.706 606.671 373.344C603.026 373.634 599.6 374.714 597.13 377.268C592.477 382.48 592.128 389.97 593.697 396.857C594.674 400.922 596.533 404.731 599.146 408.026C603.374 404.29 606.608 399.594 608.566 394.348ZM628.603 403.811C628.628 403.944 628.646 404.079 628.656 404.214L628.989 404.34L628.603 403.811ZM433.838 656.347L433.8 656.384H433.838V656.347ZM406.427 684.313C401.077 697.842 403.176 714.907 411.315 725.741C430.921 716.374 442.068 700.671 456.642 678.029C464.114 666.413 473.019 656.898 482.408 650.48C491.048 644.598 500.043 641.292 509.243 640.599C499.793 632.908 486.182 631.106 473.519 636.519C461.219 641.776 450.253 651.634 441.811 665.021C438.583 670.155 435.845 675.571 433.634 681.201C433.104 682.561 431.876 683.541 430.412 683.771C428.948 684.001 427.471 683.446 426.536 682.315C425.601 681.185 425.352 679.65 425.881 678.289C427.639 673.819 429.702 669.471 432.057 665.274C419.311 668.952 410.527 673.926 406.42 684.313H406.427ZM289.47 607.846L289.606 607.749C291.266 606.632 292.85 605.456 294.373 604.227H253.852C255.39 604.523 256.909 604.911 258.399 605.389C261.378 606.473 264.236 607.858 266.924 609.521C271.517 612.149 275.473 614.428 279.421 613.318C282.748 612.38 286.31 609.975 289.47 607.846ZM223.402 622.357C216.377 630.384 213.163 641.813 213.595 657.3C213.886 670.888 217.56 684.199 224.296 696.07C231.079 707.977 241.556 717.444 254.2 723.09C268.129 729.27 283.491 730.833 297.45 727.498C312.736 723.849 319.564 713.708 320.852 705.436C321.629 700.001 320.31 694.477 317.154 689.949C313.691 684.834 308.681 682.734 302.225 681.156L301.285 680.932C298.771 680.369 296.295 679.651 293.873 678.781C291.425 678.647 288.227 678.498 286.295 678.49C283.498 678.49 280.679 678.55 277.845 678.729C274.675 678.918 271.519 679.293 268.395 679.853C269.745 678.771 271.165 677.776 272.646 676.875C276.312 674.675 280.288 673.016 284.446 671.953C284.226 671.633 284.014 671.313 283.817 670.97C280.944 665.989 279.77 660.226 278.724 655.133L278.246 652.81L278.034 651.805C277.679 649.944 277.226 648.103 276.678 646.288C276.613 646.083 276.562 645.874 276.526 645.662C264.628 638.135 269.115 625.775 270.858 621.024C267.955 619.911 265.165 618.535 262.521 616.914C260.348 615.564 258.046 614.425 255.648 613.512C244.066 609.855 231.38 613.335 223.402 622.357ZM214.262 350.91V574.109C214.262 581.95 220.113 588.718 228.502 591.763L228.737 591.808C229.267 591.907 229.778 592.085 230.253 592.336C232.916 593.1 235.678 593.486 238.452 593.483H508.349C521.679 593.483 532.524 584.786 532.524 574.124V350.925C532.525 349.277 533.296 347.72 534.616 346.703C577.403 313.711 600.942 269.945 600.942 223.462C600.942 127.137 498.853 48.7712 373.37 48.7712C247.888 48.7712 145.822 127.137 145.822 223.462C145.822 269.945 169.383 313.711 212.171 346.703C213.49 347.72 214.262 349.277 214.262 350.925V350.91ZM157.606 414.578C163.444 418.211 167.453 424.093 168.648 430.78C170.02 438.047 168.512 447.16 159.993 449.104C159.209 449.282 158.41 449.394 157.606 449.439V563.462C157.606 574.139 168.451 582.821 181.781 582.821C182.135 582.819 182.488 582.852 182.835 582.917L207.085 587.601C204.642 583.504 203.35 578.843 203.342 574.094V356.933L157.606 348.356V414.578ZM155.515 336.048C155.94 336.382 156.313 336.776 156.621 337.217L191.906 343.889C176.643 330.178 163.8 314.076 153.9 296.236C141.282 273.154 134.871 248.703 134.871 223.462C134.871 173.68 159.88 126.966 205.214 91.9115C242.598 63.0372 290.152 44.9516 341.579 39.6577C332.129 38.7046 323.474 38.1239 316.73 38.1239C191.247 38.1239 89.1582 116.49 89.1582 212.815C89.1582 259.298 112.727 303.064 155.507 336.048H155.515ZM72.5464 484.15H72.1751L72.7889 484.567C72.7283 484.456 72.6222 484.307 72.5464 484.15ZM8.53185 565.614C8.8653 568.056 9.9262 570.677 15.2765 571.645C15.4584 571.645 16.9059 570.9 18.8839 566.47C20.0415 563.749 21.0311 560.961 21.847 558.123C22.8575 553.656 24.1938 548.816 25.856 543.604C26.7843 540.048 27.9772 536.564 29.4254 533.18C30.2625 531.153 32.6139 530.176 34.6773 530.999C36.7407 531.821 37.7348 534.131 36.8977 536.158C35.6952 539.509 34.6015 542.723 33.6163 545.801C33.1313 547.543 32.6387 549.375 32.1006 551.243C31.2897 554.222 30.4712 557.304 29.5997 560.178C28.3976 565.167 27.6644 570.254 27.4095 575.375C27.0534 586.231 29.4709 588.271 34.6697 588.554C38.6256 588.747 41.9449 583.632 42.7785 578.755L43.1423 576.611C43.6652 573.491 44.1881 570.431 44.7413 567.401C45.6583 560.379 47.2195 552.718 49.7582 546.419C50.6189 544.543 52.7973 543.628 54.7722 544.311C56.7471 544.994 57.8613 547.048 57.3366 549.04C55.3964 555.435 53.8502 561.939 52.7062 568.517C51.668 576.462 51.4861 583.595 51.7816 586.141C52.5395 592.522 56.5257 595.411 60.1709 595.449H60.2316C63.4372 595.449 67.1431 593.17 68.0146 586.752C68.5032 582.55 68.7562 578.324 68.7724 574.094C68.9998 564.653 69.2195 555.726 75.2443 549.777C75.3608 549.66 75.4849 549.55 75.6157 549.449C78.7703 547.269 82.8629 546.89 86.377 548.451C88.7945 549.553 92.9171 552.621 93.2506 560.826C93.6674 570.848 96.5396 577.854 101.132 580.058C103.883 581.384 107.286 580.929 110.226 578.86C112.212 577.46 111.37 571.95 110.62 567.088C110.044 563.32 109.453 559.426 109.688 555.711C109.994 552.298 110.814 548.948 112.121 545.771C113.803 541.177 115.152 537.581 112.727 531.088C110.757 525.787 106.513 520.091 101.147 512.883L100.442 511.945C100.225 511.643 100.051 511.312 99.9271 510.962C98.441 510.792 96.9695 510.516 95.5241 510.136C94.4859 509.786 93.3112 509.391 92.3184 508.989C95.2816 508.245 98.1007 507.798 100.7 506.889L100.814 506.852C100.966 506.688 101.133 506.539 101.314 506.406C102.06 505.873 102.97 505.61 103.891 505.661C107.225 504.172 110.082 501.938 111.469 498.729C114.023 492.296 111.719 485.111 107.831 479.177C105.502 475.717 102.448 472.785 98.8737 470.577C96.1368 475.615 94.7322 481.247 94.789 486.957C94.7959 487.371 94.7266 487.782 94.5844 488.171C95.7633 487.928 96.8812 487.457 97.8734 486.786C98.666 485.985 99.8555 485.7 100.935 486.053C102.014 486.406 102.792 487.335 102.937 488.443C103.083 489.551 102.57 490.643 101.617 491.254C98.8661 493.487 93.8417 494.656 88.3322 494.656C85.2885 494.658 82.2556 494.301 79.2988 493.592C70.1289 491.358 63.2553 485.93 59.9436 478.291C59.3778 476.829 60.0883 475.189 61.5528 474.577C63.0173 473.965 64.7126 474.598 65.3924 476.012C66.1707 477.826 67.2317 479.509 68.5374 481.001C68.5374 481.001 68.5374 481.001 68.5374 480.964C68.7854 476.302 69.5142 471.677 70.7125 467.159C58.8068 465.849 52.1606 473.116 50.8419 481.127C49.8567 487.084 51.9863 493.651 58.9432 494.902C60.8232 495.241 62.1309 496.931 61.9598 498.801C61.7887 500.671 60.1952 502.106 58.2839 502.109C58.0578 502.108 57.8322 502.088 57.6094 502.05C55.708 501.71 53.8771 501.064 52.1909 500.136C51.9979 500.282 51.7896 500.407 51.5695 500.509C47.8485 502.273 36.7083 512.853 25.4771 528.147C13.8898 544.177 7.50877 558.138 8.53185 565.614Z" fill="#090100"/>
</g>
<path d="M378.521 325.662C374.616 327.553 371.189 330.05 368.443 333.404C365.873 336.582 364.16 340.113 363.706 344.198C363.379 347.3 364.513 349.671 367.234 351.361C369.501 352.773 372.021 352.975 374.591 352.748C377.186 352.496 379.731 351.89 382.174 350.983C383.51 350.478 384.845 349.999 386.18 349.469C389.431 348.158 392.832 347.679 396.309 347.679C399.584 347.679 402.759 348.284 405.933 348.915C407.798 349.318 409.612 349.848 411.401 350.529C415.558 352.067 419.866 352.496 424.25 351.638C425.661 351.386 427.022 350.907 428.282 350.226C428.962 349.822 429.617 349.343 430.171 348.788C431.229 347.78 431.859 346.367 431.859 344.879C431.91 341.424 430.851 338.272 429.037 335.397C427.223 332.521 424.805 330.201 422.008 328.234C418.556 325.813 414.727 324.174 410.67 323.014C407.496 322.131 404.245 321.576 400.945 321.399C393.109 320.971 385.601 322.257 378.521 325.662Z" fill="#2C272C"/>
<path d="M422.833 347.832C423.236 347.832 423.665 347.806 424.093 347.781H424.143C424.32 347.756 424.496 347.706 424.647 347.655C424.773 347.605 424.874 347.529 424.95 347.403C425.202 346.949 425.05 346.571 424.975 346.293L424.95 346.243C423.766 342.662 421.725 339.333 418.903 336.357C414.746 331.993 409.43 328.917 403.08 327.227C399.83 326.344 396.504 325.915 393.128 325.915C389.525 325.915 385.948 326.42 382.496 327.429C379.85 328.16 377.331 329.27 374.988 330.682C374.484 330.959 374.005 331.313 373.627 331.741C371.511 334.263 370.226 337.315 369.898 340.568C369.697 342.258 370.352 343.948 371.662 345.057C373.249 346.495 374.912 347.226 376.751 347.226C376.953 347.226 377.129 347.226 377.331 347.201C379.573 347.05 381.816 346.672 384.008 346.117C385.696 345.663 387.485 345.083 389.651 344.276C392.272 343.292 395.169 342.712 398.52 342.535C399.024 342.51 399.503 342.485 400.007 342.485C404.139 342.485 408.346 343.393 413.184 345.335C413.662 345.511 414.091 345.738 414.569 345.965C415.3 346.318 416.031 346.697 416.862 346.924C418.777 347.529 420.793 347.832 422.833 347.832Z" fill="#FC95C1"/>
<path d="M397.48 299.808C392.35 308.088 385.226 313.144 377.231 313.144C361.248 313.144 348.728 292.936 348.728 267.144C348.728 241.352 361.248 221.152 377.231 221.152C385.226 221.152 392.387 226.208 397.488 234.495C402.793 225.97 409.977 221.152 417.692 221.152C433.675 221.152 446.194 241.352 446.194 267.144C446.194 292.936 433.675 313.144 417.692 313.144C409.939 313.114 402.755 308.311 397.48 299.808ZM357.034 267.144C357.034 287.657 366.288 304.983 377.231 304.983C380.777 304.983 384.135 303.159 387.083 300.017H386.999C381.823 300.017 377.276 293.777 374.684 284.381L387.386 278.759L373.138 275.446C372.711 272.407 372.458 269.347 372.381 266.28C372.381 264.479 372.449 262.714 372.57 260.987H357.315C357.14 262.96 357.034 265.022 357.034 267.114V267.144ZM377.231 229.313C368.97 229.313 361.687 239.171 358.603 252.819H395.866C392.782 239.141 385.491 229.283 377.231 229.283V229.313ZM436.342 252.819C433.258 239.171 425.967 229.313 417.707 229.313C412.705 229.313 407.749 233.11 403.945 239.811C405.718 243.994 407.016 248.356 407.817 252.819H436.342ZM426.786 279.065L413.41 275.96C413.043 272.93 412.861 269.882 412.864 266.831C412.864 264.836 412.94 262.878 413.084 260.979H408.825C408.946 262.721 409.022 264.486 409.022 266.273C409.022 276.191 407.074 285.84 403.505 293.71C407.362 300.903 412.478 304.983 417.707 304.983C421.049 304.983 424.224 303.367 427.036 300.516C421.913 300.173 417.457 293.763 414.971 284.269L426.786 279.065Z" fill="#090100"/>
<mask id="mask1_0_1" style="mask-type:luminance" maskUnits="userSpaceOnUse" x="682" y="0" width="758" height="707">
<path d="M1439.45 0H682V706.12H1439.45V0Z" fill="white"/>
</mask>
<g mask="url(#mask1_0_1)">
<path d="M1027.08 625.876C1018.87 622.634 1007.28 621.053 997.587 621.156V621.303C1002.69 625.724 1006.74 631.151 1009.47 637.215C1010.23 638.913 1010.88 640.659 1011.4 642.443C1008.93 640.039 1006.32 637.777 1003.57 635.671C1001.13 633.788 998.629 631.997 996.082 630.295C993.949 628.876 989.967 626.465 987.674 625.097C987.24 624.961 986.831 624.762 986.458 624.509C971.011 613.538 954.058 607.795 938.717 608.332C923.377 608.869 909.366 616.538 901.669 628.766C895.21 639.06 892.229 655.546 900.951 667.583C911.002 681.458 933.955 683.399 950.717 684.826C972.326 686.657 992.902 685.561 1011.87 681.627C1012.32 681.54 1012.77 681.397 1013.19 681.201C1005.82 663.656 1009.85 642.862 1023.95 628.707C1024.95 627.72 1025.99 626.775 1027.08 625.876Z" fill="white" stroke="white" stroke-width="9.29992" stroke-miterlimit="10" stroke-linecap="round"/>
<path d="M1109.21 618.883C1115.46 621.631 1121.02 625.644 1125.51 630.648C1126.77 632.042 1127.93 633.516 1128.98 635.06C1125.88 633.478 1122.68 632.074 1119.41 630.854C1116.48 629.756 1113.54 628.776 1110.59 627.913C1108.14 627.178 1103.66 626.045 1100.99 625.406C1100.5 625.398 1100.03 625.319 1099.57 625.17C1090.12 622.003 1080.2 620.347 1070.2 620.266C1055.68 620.266 1041.16 624.214 1030.57 634.81C1017.87 647.546 1015.12 667.649 1024.03 682.605C1030.61 693.635 1039.5 696.172 1053.61 696.966C1066.03 697.65 1096.64 690.348 1108.88 686.37C1110.41 685.877 1112.09 685.348 1113.92 684.774C1132.04 679.083 1169.72 667.245 1165.56 649.656C1161.79 633.818 1151.54 621.935 1143.59 617.589C1132.97 611.78 1122.19 613.266 1109.1 618.435C1109.14 618.567 1109.18 618.722 1109.21 618.883ZM769.375 456.66C769.459 457.237 769.394 457.826 769.184 458.373V458.461C770.465 458.064 771.644 457.413 772.647 456.55C773.814 455.364 775.759 455.313 776.992 456.436C778.225 457.558 778.278 459.43 777.11 460.616C773.831 463.947 766.41 466.064 758.766 466.064C757.321 466.063 755.876 465.985 754.44 465.829C744.702 464.763 736.86 460.167 732.449 452.888C731.59 451.481 732.08 449.67 733.543 448.844C735.005 448.017 736.887 448.488 737.746 449.895C738.804 451.643 740.143 453.219 741.713 454.564C741.667 454.398 741.636 454.228 741.622 454.057C741.254 449.471 741.339 444.862 741.874 440.292C729.537 440.557 723.721 448.741 723.453 456.917C723.247 463.042 726.327 469.417 733.657 469.756C735.768 469.809 737.434 471.497 737.38 473.528C737.325 475.558 735.569 477.162 733.458 477.109H733.26C731.253 477.015 729.277 476.6 727.412 475.881C727.234 476.048 727.04 476.198 726.832 476.329C723.239 478.587 713.203 490.683 703.718 507.528C693.781 525.11 689.141 540.022 691.213 547.419C691.885 549.838 693.338 552.345 698.971 552.632C699.193 552.632 700.561 551.676 701.982 546.963C702.807 544.062 703.448 541.115 703.901 538.139C704.344 533.507 705.063 528.46 706.056 522.999C706.534 519.29 707.3 515.62 708.35 512.021C709.099 510.064 711.277 508.981 713.37 509.523C715.463 510.066 716.78 512.055 716.406 514.109C715.616 517.639 714.925 521.019 714.334 524.249C714.067 526.066 713.807 527.977 713.57 529.919C713.142 533.066 712.714 536.235 712.209 539.279C711.651 544.464 711.589 549.687 712.026 554.882C713.127 565.868 715.894 567.625 721.282 567.228C725.364 566.941 728.1 561.346 728.291 556.316L728.376 554.11C728.498 550.904 728.62 547.75 728.781 544.61C728.781 537.419 729.339 529.499 731.074 522.823C731.64 520.741 733.806 519.454 735.994 519.901C738.183 520.347 739.62 522.368 739.26 524.492C738.13 531.185 737.42 537.938 737.135 544.713C737.135 552.853 737.899 560.066 738.572 562.596C740.192 568.927 744.687 571.338 748.47 570.897C751.788 570.522 755.349 567.757 755.349 561.132C755.292 556.845 754.988 552.564 754.44 548.309C753.4 538.75 752.407 529.735 757.803 522.963C757.909 522.831 758.024 522.706 758.147 522.588C761.098 519.988 765.257 519.082 769.085 520.205C771.729 520.999 776.377 523.573 777.837 531.794C779.625 541.838 783.531 548.537 788.538 550.176C791.549 551.154 794.996 550.265 797.71 547.801C799.575 546.132 797.954 540.691 796.533 535.882C795.424 532.161 794.285 528.316 794.018 524.536C793.879 521.068 794.273 517.599 795.187 514.242C796.288 509.403 797.159 505.573 793.812 499.374C791.068 494.278 785.931 489.08 779.426 482.506L778.662 481.609C778.397 481.334 778.173 481.024 777.997 480.69C776.048 480.715 774.102 480.55 772.188 480.197C771.424 480.021 770.659 479.881 769.895 479.668C772.845 478.557 775.689 477.726 778.234 476.476L778.349 476.425C778.487 476.241 778.64 476.069 778.807 475.91C779.507 475.279 780.411 474.897 781.368 474.829C785.297 472.447 788.354 469.094 788.69 464.535C788.822 463.175 788.757 461.804 788.499 460.461C786.711 451.527 780.183 443.91 771.164 439.946C769.226 445.308 768.614 451.031 769.375 456.66ZM1389.3 459.248C1389.09 459.13 1388.88 458.995 1388.69 458.844C1386.89 459.697 1384.96 460.256 1382.97 460.498C1382.8 460.509 1382.63 460.509 1382.46 460.498C1380.35 460.626 1378.53 459.084 1378.4 457.053C1378.27 455.023 1379.87 453.273 1381.98 453.145C1389.26 452.241 1391.82 445.682 1391.15 439.593C1390.23 431.431 1383.75 423.689 1371.35 424.38C1372.33 428.977 1372.82 433.658 1372.82 438.351V438.571C1374.26 437.122 1375.46 435.468 1376.37 433.667C1376.85 432.718 1377.82 432.09 1378.92 432.017C1380.01 431.944 1381.06 432.439 1381.68 433.315C1382.29 434.19 1382.37 435.314 1381.89 436.262C1378.07 443.844 1370.61 448.998 1360.98 450.777C1358.56 451.22 1356.1 451.442 1353.63 451.439C1347.11 451.439 1341.04 449.902 1337.98 447.241C1336.72 446.146 1336.61 444.271 1337.75 443.053C1338.89 441.835 1340.84 441.734 1342.1 442.829C1343.08 443.556 1344.2 444.088 1345.39 444.395C1345.3 444.051 1345.27 443.697 1345.29 443.343C1345.67 437.503 1344.52 431.664 1341.96 426.358C1333.41 431.02 1327.63 439.035 1326.56 447.932C1326.42 449.292 1326.47 450.664 1326.7 452.013C1327.4 456.498 1330.71 459.616 1334.81 461.704C1335.77 461.697 1336.71 462.011 1337.46 462.594C1337.63 462.74 1337.8 462.9 1337.95 463.072L1338.07 463.116C1340.71 464.175 1343.61 464.792 1346.64 465.682C1345.87 465.947 1345.15 466.145 1344.4 466.373C1342.52 466.872 1340.59 467.183 1338.64 467.3C1338.49 467.645 1338.29 467.969 1338.05 468.263L1337.29 469.167C1331.32 476.204 1326.59 481.763 1324.29 487.05C1321.45 493.477 1322.62 497.227 1324.1 501.977C1325.29 505.268 1325.96 508.71 1326.09 512.19C1326.09 515.977 1325.33 519.896 1324.48 523.691C1323.45 528.588 1322.26 534.132 1324.25 535.654C1327.19 537.911 1330.69 538.551 1333.62 537.353C1338.5 535.352 1341.87 528.389 1342.85 518.235C1343.62 509.926 1348.09 507.028 1350.66 506.036C1354.39 504.638 1358.61 505.236 1361.76 507.609C1361.89 507.72 1362.01 507.837 1362.13 507.962C1368.05 514.323 1367.77 523.404 1367.48 532.963C1367.27 537.246 1367.31 541.536 1367.59 545.816C1368.14 552.434 1371.91 554.912 1375.23 555.051C1378.98 555.206 1383.32 552.478 1384.4 546.044C1384.85 543.47 1385.06 536.227 1384.4 528.11C1383.58 521.374 1382.34 514.692 1380.68 508.102C1380.13 506.002 1381.4 503.859 1383.56 503.25C1385.72 502.641 1388 503.784 1388.71 505.837C1391.01 512.367 1392.2 520.22 1392.75 527.396C1393.16 530.514 1393.51 533.654 1393.91 536.853L1394.16 539.058C1394.75 544.044 1397.92 549.426 1402.01 549.426C1407.41 549.426 1410.03 547.463 1410.26 536.433C1410.28 531.221 1409.8 526.018 1408.83 520.889C1408.07 517.889 1407.41 514.764 1406.74 511.654C1406.32 509.742 1405.91 507.859 1405.51 506.065C1404.65 502.889 1403.7 499.568 1402.63 496.102C1402 494.036 1403.17 491.857 1405.28 491.155C1407.4 490.453 1409.72 491.476 1410.54 493.477C1411.86 496.993 1412.91 500.598 1413.67 504.264C1415.09 509.622 1416.21 514.597 1417.02 519.19C1417.71 522.119 1418.58 525.004 1419.63 527.83C1421.43 532.455 1422.88 533.264 1423.09 533.264C1428.67 532.529 1429.93 529.955 1430.41 527.492C1431.88 519.963 1426.04 505.433 1414.77 488.638C1404.03 472.557 1393.07 461.234 1389.3 459.248Z" fill="white" stroke="white" stroke-width="9.29992" stroke-miterlimit="10" stroke-linecap="round"/>
<path d="M1034.96 172.787C1033.06 172.694 1031.17 172.648 1029.29 172.648C972.884 172.648 925.578 215.295 922.589 270.113C919.532 326.731 964.896 375.261 1023.77 378.203C1082.64 381.144 1133.07 337.503 1136.13 280.87C1139.18 224.237 1093.83 175.758 1034.96 172.787Z" fill="#FFC23B" stroke="#FFC23B" stroke-width="9.29992" stroke-miterlimit="10" stroke-linecap="round"/>
<path d="M1018.75 281.444C1020.98 283.539 1023.44 284.716 1025.98 284.841C1030.45 285.083 1034.99 282.076 1038.78 276.422C1042.97 270.149 1045.55 261.576 1046.05 252.289C1047.05 234.141 1039.52 218.391 1029.63 217.898H1029.15C1026.09 217.898 1023.15 219.332 1020.49 221.862H1020.58C1025.26 222.097 1029.07 227.825 1030.95 236.259L1019.2 240.671L1031.92 244.252C1032.16 246.961 1032.23 249.681 1032.14 252.399C1031.3 267.782 1025.46 280.179 1018.75 281.444ZM993.078 216.053H992.604C989.845 216.053 987.07 217.273 984.479 219.575C989.065 220.141 992.764 226.009 994.553 234.494L983.623 238.583L995.562 241.936C995.74 244.629 995.758 247.329 995.615 250.024C994.752 265.782 988.652 278.407 981.758 279.172C984.097 281.532 986.711 282.848 989.401 282.995C993.919 283.223 998.573 280.091 1002.34 274.341C999.622 266.747 998.497 258.709 999.032 250.693C999.514 241.921 1001.74 233.472 1005.34 226.671C1002.23 220.134 997.801 216.31 993.078 216.053Z" fill="white" stroke="white" stroke-width="9.29992" stroke-miterlimit="10" stroke-linecap="round"/>
<path d="M1338.24 169.721C1328.99 121.772 1306.74 83.9548 1272.07 57.3808C1237.65 30.9685 1191.49 15.9242 1134.85 12.63C1127.61 12.2108 1120.79 12.0197 1114.3 12.0197C1082.81 12.0197 1059.05 16.5418 1032.25 21.6375C1005.45 26.7332 975.016 32.5274 931.662 34.3657C883.447 36.4098 841.018 50.5424 808.953 75.3149C774.076 102.279 752.277 140.353 744.266 188.493C734.735 245.634 740.597 301.672 761.235 350.54C783.118 402.402 820.984 443.447 870.72 469.256C966.104 518.698 1068.69 529.853 1159.64 500.668C1212.81 483.572 1268.86 449.888 1293.83 400.99C1292.83 401.108 1291.83 401.24 1290.82 401.387C1287.29 401.916 1283.6 402.35 1280.12 401.387C1271.59 399.122 1270.19 390.166 1271.83 382.923C1275.36 367.283 1291.02 361.136 1306.22 361.754C1306.85 356.993 1307.2 352.2 1307.25 347.401C1307.6 315.988 1316.42 291.451 1324.99 267.723C1335.74 237.847 1345.91 209.597 1338.24 169.721ZM1147.46 281.488C1144.16 342.121 1091.82 389.306 1029.43 389.306C1027.35 389.306 1025.26 389.254 1023.17 389.151C958.048 385.865 907.845 332.224 911.254 269.576C914.663 206.928 970.407 158.588 1035.55 161.897C1100.7 165.206 1150.9 218.803 1147.46 281.451V281.488Z" fill="#FFFEF3" stroke="#FFFEF3" stroke-width="9.29992" stroke-miterlimit="10" stroke-linecap="round"/>
<path d="M746.093 457.204L745.726 457.248C745.933 457.358 746.147 457.461 746.361 457.564C746.269 457.447 746.177 457.329 746.093 457.204ZM1368.6 441.535C1368.52 441.676 1368.43 441.814 1368.34 441.946C1368.55 441.829 1368.76 441.704 1368.97 441.571C1368.84 441.566 1368.72 441.554 1368.6 441.535Z" fill="#FFFDEB"/>
<path d="M1068.16 299.547C1067.32 299.51 1066.5 299.234 1065.82 298.753C1065.58 299.488 1065.31 300.223 1065.06 300.959C1074.1 302.113 1081.91 306.481 1088.13 312.922C1091.84 316.76 1085.84 322.533 1082.14 318.68C1077.25 313.613 1071.06 309.628 1063.73 308.959C1062.9 308.89 1062.11 308.594 1061.44 308.106C1060.51 309.563 1059.47 310.952 1058.33 312.26C1061.43 313.999 1064.42 315.909 1067.3 317.981C1072.98 321.805 1079.42 327.04 1086.45 328.224C1094.48 329.577 1096.03 320.319 1094.41 314.613C1091.01 302.804 1079.56 300.209 1068.16 299.547Z" fill="#FF73EF" stroke="#FF73EF" stroke-width="9.29992" stroke-miterlimit="10" stroke-linecap="round"/>
<path d="M1025.59 292.047H1026.48C1033.44 292.047 1040.02 287.9 1045.1 280.282C1049.98 272.966 1052.99 263.142 1053.56 252.62C1054.8 229.825 1044.46 211.362 1030.03 210.634C1022.81 210.281 1016.13 214.428 1011.09 221.516C1006.74 213.722 1000.48 209.141 993.468 208.788C986.183 208.428 979.258 212.59 973.961 220.553C969.077 227.869 966.073 237.693 965.5 248.215C964.927 258.737 966.845 268.804 970.912 276.569C975.314 284.995 981.75 289.804 989.034 290.201H989.898C996.571 290.201 1002.99 286.289 1007.95 279.275C1012.34 287.179 1018.57 291.709 1025.59 292.047ZM1031.92 244.252L1019.2 240.678L1030.95 236.266C1029.07 227.832 1025.26 222.104 1020.58 221.869H1020.49C1023.15 219.34 1026.11 217.906 1029.15 217.906H1029.63C1039.52 218.398 1047.05 234.149 1046.05 252.296C1045.55 261.583 1043 270.157 1038.78 276.429C1034.99 282.083 1030.45 285.091 1025.98 284.848C1023.44 284.723 1020.98 283.547 1018.75 281.451C1025.46 280.186 1031.3 267.774 1032.14 252.37C1032.23 249.662 1032.15 246.952 1031.92 244.252ZM999.055 250.73C998.52 258.745 999.645 266.783 1002.36 274.377C998.604 280.127 993.957 283.26 989.424 283.032C986.711 282.9 984.074 281.561 981.781 279.208C988.66 278.473 994.775 265.818 995.638 250.061C995.781 247.366 995.763 244.665 995.585 241.972L983.646 238.619L994.576 234.531C992.787 226.046 989.088 220.178 984.502 219.612C987.093 217.31 989.852 216.09 992.627 216.09H993.101C997.824 216.325 1002.27 220.171 1005.38 226.707C1001.76 233.472 999.559 241.921 999.055 250.693V250.73ZM1068.16 291.4C1067.95 291.385 1067.74 291.385 1067.53 291.4C1067.58 291.039 1067.63 290.664 1067.67 290.319C1068.31 285.032 1059.7 285.076 1059.07 290.319C1058.16 297.878 1054.55 305.378 1048.45 310.069C1047.89 310.274 1047.39 310.625 1047.02 311.084C1044.9 312.466 1042.55 313.488 1040.07 314.106C1030.65 316.496 1022.08 311.738 1019.03 302.937C1017.28 297.915 1008.97 300.069 1010.73 305.143C1015.18 317.988 1027.74 325.393 1041.67 322.253C1045.16 321.472 1048.47 320.092 1051.45 318.18C1055.62 319.224 1061.13 323.805 1064.67 326.18C1070.41 330.033 1076.56 334.334 1083.48 335.945C1090.23 337.518 1096.47 335.496 1100.42 329.871C1105.62 322.393 1103.73 312.106 1099.11 304.797C1092.57 294.415 1079.9 292.084 1068.16 291.4ZM1086.42 328.261C1079.39 327.077 1072.94 321.841 1067.27 318.018C1064.39 315.946 1061.4 314.036 1058.3 312.297C1059.44 310.989 1060.48 309.6 1061.41 308.143C1062.08 308.631 1062.87 308.927 1063.7 308.996C1071.03 309.665 1077.22 313.65 1082.11 318.716C1085.82 322.569 1091.81 316.797 1088.1 312.959C1081.88 306.518 1074.07 302.15 1065.03 300.996C1065.31 300.26 1065.58 299.525 1065.79 298.79C1066.47 299.271 1067.29 299.547 1068.13 299.584C1079.53 300.246 1090.98 302.841 1094.35 314.687C1096 320.356 1094.45 329.614 1086.42 328.261Z" fill="#090100"/>
<path d="M1395.26 453.395C1398.06 449.55 1399.41 444.454 1398.76 438.821C1398.13 432.768 1395.18 427.158 1390.49 423.078C1386.76 419.873 1380.13 416.225 1369.85 417.1C1369.71 417.1 1369.58 417.152 1369.44 417.174C1365.89 406.271 1360.3 396.082 1352.95 387.107C1343.91 375.953 1332.13 367.254 1318.17 363.577C1318.89 358.258 1319.28 352.903 1319.34 347.54C1319.67 318.025 1328.18 294.4 1336.42 271.554C1347.23 241.531 1358.41 210.523 1350.17 167.589C1340.4 116.794 1316.67 76.6458 1279.66 48.2556C1243.25 20.3139 1194.82 4.42391 1135.64 1.00473C1091.73 -1.53943 1063.12 3.94597 1029.97 10.2108C1003.56 15.2329 973.633 20.9242 931.196 22.711C880.397 24.8728 835.53 39.9098 801.447 66.2118C783.386 80.1575 768.279 97.312 756.947 116.742C744.924 137.265 736.638 160.78 732.327 186.596C722.444 245.84 728.574 304.025 750.037 354.871C755.098 366.906 761.09 378.559 767.961 389.732C755.479 401.488 746.844 416.499 743.12 432.917H742.929C732.595 432.821 726.274 436.917 722.803 440.395C718.453 444.805 715.958 450.611 715.802 456.689C715.611 462.351 717.331 467.337 720.457 470.969C714.281 476.116 704.405 489.484 696.38 503.727C681.995 529.264 681.238 542.742 683.141 549.544C685.044 556.346 690.517 560.309 698.551 560.713C700.538 560.851 702.512 560.301 704.115 559.162C705.155 566.103 708.357 576.243 721.909 575.272C725.654 575.008 729.491 573 732.32 569.39C735.82 576.074 742.103 578.993 747.706 578.993C748.301 578.992 748.896 578.958 749.487 578.89C756.565 578.081 763.727 572.272 763.773 561.162C763.719 556.58 763.4 552.004 762.817 547.456C761.938 539.367 761.174 532.426 764.262 528.169C765.006 527.766 765.89 527.673 766.708 527.911C768.053 528.374 769.123 530.286 769.627 533.147C772.685 550.125 780.16 555.941 785.923 557.794C791.893 559.735 798.474 558.199 803.503 553.684C809.114 548.654 806.752 540.691 804.665 533.661C803.687 530.338 802.663 526.904 802.464 523.985C802.379 521.257 802.711 518.531 803.45 515.896C804.681 510.499 806.072 504.381 801.333 495.587C798.329 490.013 793.254 484.66 787.307 478.638C787.888 478.374 788.461 478.094 789.027 477.778C799.506 471.829 799.858 458.594 793.613 449.616C789.027 442.711 780.474 437.513 771.921 438.035C775.295 430.008 781.037 423.107 788.438 418.181C809.417 443.364 835.464 464.215 865.018 479.484C904.94 500.175 946.116 514.337 987.246 521.86C981.016 534.772 978.028 551.14 978.57 569.655C979.065 584.462 981.494 599.152 985.801 613.376C970.338 603.854 953.698 598.964 938.35 599.53C919.815 600.199 903.19 609.42 893.888 624.185C885.679 637.222 882.369 657.274 893.49 672.59C905.988 689.833 931.395 691.988 949.953 693.561C957.036 694.164 964.014 694.463 970.889 694.458C985.327 694.514 999.73 693.086 1013.85 690.201C1015.1 689.948 1016.31 689.54 1017.45 688.988C1025.91 701.635 1037.46 704.812 1053.11 705.694C1053.77 705.731 1054.48 705.753 1055.23 705.753C1069.91 705.753 1099.3 698.716 1111.83 694.657C1113.36 694.172 1115 693.65 1116.8 693.091C1139.08 686.091 1180.55 673.068 1174.51 647.656C1171.33 634.303 1161.95 617.45 1148.14 609.905C1142.52 606.781 1136.16 605.097 1129.67 605.016C1129.62 604.875 1129.57 604.738 1129.5 604.604C1116.84 578.28 1115.88 552.397 1126.53 521.264C1139.03 518.768 1151.37 515.576 1163.48 511.705C1204.53 498.528 1241.9 477.609 1268.7 452.8C1284.27 438.388 1296.46 422.615 1304.93 405.931C1305.79 404.255 1306.59 402.563 1307.36 400.865C1317.17 401.968 1325.86 405.872 1332.64 412.975C1335.92 416.408 1338.71 420.251 1340.93 424.402C1332.52 424.681 1324.58 430.432 1320.63 437.535C1315.09 446.947 1316.49 460.116 1327.41 465.278C1328 465.55 1328.6 465.785 1329.19 466.013C1323.74 472.462 1319.11 478.168 1316.56 483.947C1312.53 493.058 1314.4 499.058 1316.05 504.352C1317 506.918 1317.55 509.603 1317.68 512.323C1317.68 515.264 1316.96 518.749 1316.24 522.124C1314.72 529.294 1313 537.411 1319 541.978C1324.39 546.11 1331.07 547.162 1336.87 544.787C1347.01 540.639 1350.24 528.477 1351.15 519.014C1351.44 516.124 1352.35 514.146 1353.66 513.58C1354.45 513.281 1355.34 513.307 1356.11 513.654C1359.54 517.668 1359.32 524.683 1359.09 532.772C1358.87 537.349 1358.91 541.934 1359.22 546.507C1360.15 557.596 1367.75 562.846 1374.87 563.14H1375.49C1381.38 563.14 1388.06 559.794 1391.23 552.397C1394.29 555.757 1398.3 557.478 1402.05 557.478C1415.65 557.478 1418.03 547.103 1418.52 540.11C1420.2 541.127 1422.21 541.528 1424.18 541.242C1432.16 540.25 1437.3 535.897 1438.7 528.977C1441.16 516.433 1430.91 497.742 1421.89 484.263C1412.74 470.682 1401.83 458.086 1395.26 453.395ZM746.093 457.204C746.177 457.329 746.269 457.447 746.361 457.564C746.147 457.461 745.933 457.358 745.726 457.248L746.093 457.204ZM788.484 460.498C788.742 461.841 788.806 463.212 788.675 464.572C788.339 469.094 785.281 472.447 781.353 474.866C780.396 474.934 779.492 475.316 778.792 475.947C778.625 476.106 778.471 476.278 778.333 476.462L778.219 476.513C775.673 477.763 772.868 478.594 769.88 479.705C770.644 479.918 771.408 480.057 772.173 480.234C774.087 480.587 776.033 480.752 777.982 480.727C778.158 481.061 778.382 481.37 778.647 481.646L779.495 482.499C786 489.08 791.136 494.264 793.88 499.367C797.228 505.565 796.357 509.396 795.256 514.235C794.342 517.592 793.947 521.061 794.087 524.529C794.354 528.308 795.493 532.154 796.601 535.875C798.023 540.684 799.659 546.125 797.779 547.794C795.027 550.257 791.58 551.147 788.606 550.169C783.585 548.537 779.679 541.838 777.905 531.786C776.445 523.566 771.791 520.992 769.154 520.198C765.326 519.075 761.167 519.981 758.216 522.58C758.093 522.698 757.978 522.824 757.872 522.955C752.475 529.727 753.469 538.75 754.509 548.301C755.041 552.572 755.327 556.868 755.365 561.169C755.365 567.787 751.788 570.559 748.486 570.934C744.733 571.375 740.208 568.963 738.587 562.632C737.938 560.103 737.158 552.89 737.15 544.75C737.435 537.974 738.145 531.222 739.275 524.529C739.636 522.405 738.198 520.384 736.01 519.937C733.821 519.491 731.655 520.778 731.089 522.86C729.331 529.536 728.758 537.456 728.796 544.647C728.635 547.787 728.513 550.941 728.391 554.147L728.307 556.353C728.116 561.375 725.379 566.978 721.298 567.265C715.909 567.662 713.142 565.905 712.041 554.919C711.604 549.724 711.666 544.501 712.225 539.316C712.729 536.272 713.157 533.103 713.585 529.955C713.845 528.014 714.105 526.102 714.35 524.286C714.931 521.031 715.616 517.639 716.406 514.11C716.754 512.06 715.427 510.091 713.339 509.562C711.252 509.033 709.088 510.117 708.342 512.065C707.292 515.664 706.526 519.334 706.049 523.044C705.06 528.5 704.342 533.546 703.893 538.183C703.44 541.159 702.799 544.106 701.975 547.007C700.553 551.72 699.185 552.676 698.963 552.676C693.33 552.39 691.878 549.882 691.205 547.463C689.134 540.066 693.812 525.154 703.71 507.573C713.195 490.727 723.231 478.631 726.824 476.374C727.032 476.242 727.227 476.092 727.405 475.925C729.269 476.644 731.246 477.059 733.252 477.153H733.451C735.561 477.206 737.317 475.603 737.372 473.572C737.427 471.542 735.76 469.853 733.65 469.8C726.319 469.432 723.239 463.087 723.445 456.961C723.713 448.785 729.56 440.601 741.866 440.336C741.331 444.907 741.247 449.515 741.614 454.101C741.628 454.273 741.659 454.442 741.706 454.608C740.136 453.263 738.797 451.687 737.739 449.939C736.88 448.532 734.998 448.061 733.535 448.888C732.072 449.714 731.583 451.525 732.442 452.932C736.883 460.211 744.671 464.807 754.432 465.873C755.869 466.029 757.313 466.107 758.758 466.109C766.402 466.109 773.808 463.991 777.103 460.66C778.27 459.474 778.217 457.603 776.984 456.48C775.752 455.357 773.806 455.408 772.639 456.594C771.637 457.457 770.457 458.108 769.177 458.506V458.417C769.386 457.87 769.452 457.282 769.368 456.704C768.607 451.088 769.214 445.379 771.141 440.027C780.191 443.946 786.695 451.564 788.484 460.498ZM1013.2 681.201C1012.78 681.397 1012.34 681.54 1011.88 681.627C992.902 685.583 972.326 686.657 950.733 684.826C933.97 683.399 910.986 681.458 900.966 667.583C892.245 655.546 895.226 639.024 901.684 628.766C909.389 616.538 923.216 608.913 938.671 608.332C954.126 607.751 970.965 613.479 986.413 624.509C986.785 624.762 987.194 624.961 987.628 625.097C989.959 626.464 993.941 628.876 996.036 630.295C998.584 631.992 1001.08 633.783 1003.53 635.671C1006.27 637.777 1008.89 640.039 1011.35 642.443C1010.83 640.659 1010.19 638.912 1009.42 637.215C1006.69 631.151 1002.64 625.724 997.541 621.303V621.156C1007.23 621.053 1018.82 622.626 1027.03 625.876C1025.96 626.791 1024.92 627.746 1023.93 628.737C1009.86 642.862 1005.83 663.656 1013.2 681.201ZM1075.12 575.669C1080.19 589.478 1087.04 602.618 1095.52 614.78C1076.46 609.883 1053.52 609.567 1035.4 619.964C1030.95 617.651 1026.2 615.93 1021.27 614.847C1021.36 614.391 1021.37 613.924 1021.31 613.464C1017.9 588.295 1016.65 561.066 1041.64 529.33C1041.96 528.909 1042.2 528.436 1042.36 527.933C1047 528.11 1051.64 528.2 1056.27 528.205C1060.4 528.205 1064.53 528.124 1068.65 527.985C1066.68 542.088 1068.89 558.426 1075.12 575.669ZM1143.59 617.582C1151.54 621.928 1161.79 633.81 1165.56 649.649C1169.74 667.237 1132.04 679.061 1113.92 684.767C1112.09 685.341 1110.41 685.87 1108.88 686.363C1096.65 690.326 1066.03 697.642 1053.61 696.958C1039.5 696.164 1030.61 693.635 1024.03 682.598C1015.12 667.649 1017.87 647.546 1030.57 634.803C1041.12 624.207 1055.65 620.258 1070.2 620.258C1080.2 620.332 1090.12 621.981 1099.57 625.141C1100.03 625.29 1100.5 625.369 1100.99 625.376C1103.66 626.016 1108.14 627.148 1110.59 627.884C1113.54 628.776 1116.48 629.756 1119.41 630.825C1122.68 632.045 1125.88 633.449 1128.98 635.031C1127.93 633.487 1126.77 632.013 1125.51 630.619C1121.02 625.615 1115.46 621.602 1109.21 618.854C1109.21 618.692 1109.14 618.538 1109.1 618.383C1122.19 613.244 1132.97 611.758 1143.59 617.567V617.582ZM1307.22 347.43C1307.17 352.23 1306.82 357.022 1306.19 361.783C1291.01 361.166 1275.34 367.313 1271.8 382.953C1270.15 390.196 1271.56 399.13 1280.09 401.416C1283.6 402.35 1287.29 401.916 1290.79 401.416C1291.8 401.269 1292.8 401.137 1293.8 401.019C1268.86 449.888 1212.81 483.572 1159.61 500.639C1068.69 529.823 966.104 518.668 870.69 469.226C820.954 443.447 783.088 402.402 761.189 350.54C740.552 301.672 734.689 245.634 744.22 188.493C752.246 140.353 774.03 102.279 808.953 75.3296C841.018 50.5865 883.447 36.4245 931.662 34.3803C975.016 32.5421 1005.42 26.7552 1032.25 21.6522C1059.08 16.5491 1082.87 12.0343 1114.33 12.0343C1120.82 12.0343 1127.64 12.2255 1134.88 12.6446C1191.49 15.9241 1237.65 30.9685 1272.07 57.3807C1306.74 83.9548 1328.99 121.772 1338.24 169.721C1345.88 209.597 1335.74 237.847 1324.96 267.752C1316.41 291.481 1307.59 316.018 1307.22 347.43ZM1368.6 441.549C1368.72 441.569 1368.84 441.581 1368.97 441.586C1368.76 441.719 1368.55 441.844 1368.34 441.961C1368.43 441.823 1368.52 441.681 1368.6 441.535V441.549ZM1430.46 527.529C1429.98 529.992 1428.73 532.602 1423.14 533.301C1422.93 533.301 1421.49 532.492 1419.68 527.867C1418.63 525.041 1417.76 522.156 1417.07 519.227C1416.26 514.639 1415.14 509.663 1413.72 504.301C1412.96 500.635 1411.92 497.03 1410.6 493.514C1409.77 491.512 1407.45 490.49 1405.34 491.192C1403.22 491.894 1402.05 494.073 1402.69 496.139C1403.76 499.604 1404.71 502.925 1405.56 506.102C1405.96 507.896 1406.38 509.779 1406.79 511.69C1407.46 514.801 1408.14 517.926 1408.88 520.926C1409.85 526.055 1410.33 531.258 1410.31 536.47C1410.08 547.5 1407.46 549.448 1402.06 549.463C1397.97 549.463 1394.8 544.081 1394.22 539.095L1393.96 536.889C1393.58 533.691 1393.2 530.551 1392.8 527.433C1392.25 520.257 1391.05 512.404 1388.77 505.874C1388.05 503.821 1385.78 502.678 1383.62 503.287C1381.46 503.896 1380.18 506.039 1380.73 508.139C1382.39 514.729 1383.64 521.411 1384.46 528.147C1385.1 536.235 1384.89 543.507 1384.46 546.081C1383.35 552.515 1379.01 555.243 1375.28 555.088C1371.94 554.948 1368.18 552.456 1367.64 545.853C1367.36 541.573 1367.33 537.283 1367.53 533C1367.82 523.404 1368.09 514.337 1362.18 507.999C1362.07 507.874 1361.95 507.756 1361.82 507.646C1358.66 505.273 1354.45 504.674 1350.72 506.073C1348.14 507.065 1343.71 509.962 1342.91 518.271C1341.92 528.419 1338.56 535.382 1333.67 537.389C1330.74 538.588 1327.24 537.948 1324.3 535.691C1322.31 534.169 1323.54 528.625 1324.54 523.727C1325.34 519.933 1326.17 516.014 1326.14 512.227C1326.01 508.747 1325.34 505.305 1324.16 502.014C1322.67 497.264 1321.5 493.514 1324.35 487.087C1326.69 481.8 1331.39 476.241 1337.34 469.204L1338.11 468.3C1338.35 468.006 1338.54 467.682 1338.69 467.337C1340.64 467.22 1342.57 466.909 1344.45 466.41C1345.21 466.182 1345.98 465.984 1346.69 465.719C1343.63 464.829 1340.77 464.248 1338.12 463.153L1338.01 463.109C1337.85 462.937 1337.69 462.777 1337.51 462.631C1336.76 462.048 1335.83 461.734 1334.86 461.741C1330.77 459.653 1327.45 456.535 1326.75 452.05C1326.52 450.701 1326.48 449.329 1326.62 447.969C1327.68 439.042 1333.5 431.057 1341.97 426.402C1344.54 431.709 1345.68 437.547 1345.31 443.388C1345.28 443.741 1345.32 444.096 1345.4 444.439C1344.21 444.132 1343.09 443.6 1342.12 442.873C1340.85 441.779 1338.9 441.879 1337.77 443.097C1336.63 444.316 1336.73 446.19 1338 447.285C1341.06 449.947 1347.12 451.483 1353.64 451.483C1356.11 451.486 1358.57 451.264 1361 450.822C1370.62 449.042 1378.05 443.888 1381.9 436.307C1382.38 435.358 1382.3 434.235 1381.69 433.359C1381.08 432.483 1380.03 431.988 1378.93 432.061C1377.84 432.134 1376.87 432.763 1376.38 433.711C1375.47 435.512 1374.28 437.166 1372.84 438.616V438.395C1372.84 433.702 1372.34 429.021 1371.36 424.424C1383.77 423.733 1390.24 431.476 1391.17 439.638C1391.85 445.726 1389.29 452.285 1381.99 453.189C1379.88 453.317 1378.28 455.067 1378.41 457.097C1378.55 459.128 1380.37 460.67 1382.48 460.542C1382.64 460.553 1382.81 460.553 1382.98 460.542C1384.97 460.3 1386.91 459.741 1388.71 458.888C1388.9 459.039 1389.1 459.175 1389.32 459.292C1393.09 461.278 1404.05 472.601 1414.84 488.705C1426.07 505.462 1431.94 519.992 1430.46 527.514V527.529Z" fill="#090100"/>
<path d="M1035.55 161.897C970.407 158.603 914.671 206.905 911.254 269.554C907.837 332.202 958.047 385.828 1023.17 389.107C1025.26 389.21 1027.35 389.262 1029.43 389.262C1091.82 389.262 1144.16 342.077 1147.46 281.444C1150.9 218.803 1100.67 165.162 1035.55 161.897ZM1136.13 280.877C1133.07 337.496 1082.62 381.159 1023.77 378.21C964.911 375.261 919.509 326.739 922.589 270.12C925.578 215.31 972.884 172.655 1029.29 172.655C1031.17 172.655 1033.06 172.701 1034.96 172.795C1093.83 175.758 1139.21 224.244 1136.13 280.877Z" fill="#090100"/>
</g>
</svg>
