<svg width="1428" height="727" viewBox="0 0 1428 727" fill="none" xmlns="http://www.w3.org/2000/svg">
<path d="M1028.36 636.419C1020.4 633.172 1009.16 631.589 999.754 631.692V631.839C1004.7 636.267 1008.63 641.702 1011.28 647.774C1012.02 649.475 1012.65 651.224 1013.15 653.01C1010.76 650.602 1008.22 648.338 1005.56 646.228C1003.19 644.343 1000.76 642.549 998.293 640.845C996.225 639.424 992.362 637.009 990.138 635.639C989.717 635.502 989.32 635.304 988.959 635.05C973.974 624.063 957.529 618.312 942.649 618.849C927.768 619.387 914.178 627.067 906.712 639.313C900.447 649.623 897.555 666.132 906.015 678.187C915.765 692.082 938.03 694.026 954.289 695.455C975.25 697.289 995.209 696.191 1013.6 692.252C1014.05 692.164 1014.48 692.021 1014.89 691.825C1007.74 674.255 1011.65 653.43 1025.33 639.254C1026.29 638.266 1027.31 637.32 1028.36 636.419Z" fill="white" stroke="white" stroke-width="9.29992" stroke-miterlimit="10" stroke-linecap="round"/>
<path d="M1108.03 629.416C1114.09 632.168 1119.49 636.187 1123.84 641.198C1125.06 642.594 1126.19 644.07 1127.21 645.617C1124.2 644.033 1121.1 642.626 1117.92 641.405C1115.09 640.305 1112.23 639.323 1109.37 638.459C1106.99 637.723 1102.64 636.589 1100.06 635.948C1099.59 635.941 1099.12 635.861 1098.68 635.712C1089.51 632.541 1079.89 630.882 1070.19 630.801C1056.1 630.801 1042.02 634.755 1031.75 645.366C1019.43 658.12 1016.76 678.253 1025.41 693.231C1031.79 704.277 1040.41 706.817 1054.09 707.612C1066.14 708.297 1095.84 700.985 1107.71 697.001C1109.2 696.508 1110.83 695.978 1112.6 695.403C1130.17 689.704 1166.72 677.848 1162.69 660.234C1159.04 644.372 1149.09 632.472 1141.38 628.12C1131.08 622.303 1120.62 623.79 1107.92 628.967C1107.97 629.1 1108 629.254 1108.03 629.416ZM778.385 466.957C778.466 467.535 778.403 468.124 778.199 468.672V468.761C779.441 468.363 780.586 467.711 781.558 466.846C782.69 465.659 784.577 465.608 785.773 466.732C786.969 467.857 787.02 469.731 785.888 470.918C782.707 474.254 775.508 476.375 768.094 476.375C766.691 476.374 765.29 476.295 763.897 476.139C754.451 475.072 746.844 470.469 742.566 463.179C741.733 461.77 742.208 459.957 743.626 459.129C745.045 458.301 746.871 458.773 747.704 460.182C748.73 461.933 750.029 463.511 751.552 464.858C751.507 464.692 751.477 464.522 751.463 464.35C751.107 459.758 751.189 455.142 751.708 450.565C739.741 450.83 734.099 459.026 733.839 467.214C733.639 473.348 736.627 479.733 743.738 480.072C745.785 480.124 747.402 481.816 747.348 483.849C747.295 485.883 745.592 487.488 743.545 487.435H743.352C741.406 487.341 739.489 486.926 737.68 486.206C737.507 486.373 737.318 486.523 737.117 486.655C733.632 488.915 723.897 501.029 714.696 517.899C705.057 535.506 700.557 550.44 702.566 557.848C703.218 560.271 704.627 562.782 710.091 563.069C710.306 563.069 711.634 562.111 713.013 557.391C713.812 554.486 714.434 551.535 714.874 548.555C715.304 543.916 716.001 538.862 716.964 533.393C717.427 529.678 718.171 526.003 719.189 522.399C719.916 520.439 722.028 519.354 724.058 519.897C726.089 520.44 727.366 522.433 727.003 524.49C726.237 528.025 725.568 531.409 724.994 534.645C724.735 536.463 724.483 538.378 724.253 540.322C723.838 543.474 723.422 546.648 722.933 549.696C722.391 554.888 722.331 560.119 722.755 565.322C723.823 576.324 726.507 578.083 731.734 577.686C735.693 577.399 738.347 571.795 738.533 566.758L738.614 564.549C738.733 561.338 738.852 558.179 739.007 555.035C739.007 547.833 739.548 539.902 741.232 533.216C741.781 531.131 743.882 529.843 746.005 530.289C748.127 530.736 749.522 532.761 749.172 534.888C748.076 541.59 747.388 548.353 747.111 555.138C747.111 563.29 747.853 570.514 748.505 573.047C750.077 579.387 754.436 581.802 758.107 581.36C761.324 580.985 764.779 578.216 764.779 571.581C764.724 567.288 764.429 563 763.897 558.739C762.889 549.166 761.925 540.138 767.159 533.356C767.263 533.224 767.374 533.099 767.493 532.98C770.356 530.377 774.39 529.47 778.103 530.594C780.668 531.39 785.176 533.967 786.592 542.2C788.327 552.259 792.116 558.967 796.972 560.609C799.894 561.589 803.238 560.698 805.87 558.231C807.679 556.559 806.107 551.11 804.728 546.294C803.653 542.568 802.548 538.717 802.288 534.932C802.153 531.459 802.536 527.985 803.423 524.622C804.491 519.777 805.336 515.941 802.088 509.733C799.427 504.63 794.444 499.424 788.135 492.84L787.393 491.942C787.136 491.666 786.919 491.357 786.748 491.022C784.858 491.047 782.97 490.882 781.113 490.528C780.372 490.351 779.63 490.211 778.889 489.998C781.751 488.886 784.509 488.054 786.978 486.802L787.089 486.751C787.223 486.567 787.372 486.394 787.534 486.235C788.213 485.603 789.09 485.221 790.018 485.153C793.829 482.767 796.794 479.409 797.121 474.843C797.248 473.481 797.186 472.109 796.935 470.764C795.2 461.817 788.869 454.188 780.12 450.219C778.24 455.588 777.646 461.319 778.385 466.957ZM1379.72 469.549C1379.51 469.431 1379.32 469.295 1379.13 469.144C1377.38 469.998 1375.51 470.558 1373.58 470.801C1373.41 470.812 1373.25 470.812 1373.09 470.801C1371.04 470.929 1369.28 469.384 1369.15 467.351C1369.02 465.317 1370.57 463.565 1372.62 463.437C1379.69 462.531 1382.17 455.963 1381.52 449.865C1380.62 441.692 1374.34 433.937 1362.31 434.63C1363.26 439.233 1363.74 443.921 1363.74 448.621V448.842C1365.13 447.391 1366.29 445.734 1367.18 443.93C1367.65 442.98 1368.59 442.351 1369.65 442.278C1370.71 442.205 1371.73 442.701 1372.33 443.578C1372.92 444.455 1373 445.58 1372.53 446.53C1368.82 454.122 1361.59 459.284 1352.25 461.066C1349.9 461.509 1347.51 461.731 1345.12 461.728C1338.8 461.728 1332.91 460.189 1329.94 457.524C1328.72 456.428 1328.61 454.55 1329.72 453.33C1330.82 452.11 1332.71 452.009 1333.94 453.105C1334.89 453.833 1335.97 454.366 1337.13 454.674C1337.04 454.33 1337.01 453.975 1337.03 453.621C1337.4 447.772 1336.29 441.925 1333.8 436.611C1325.51 441.279 1319.9 449.306 1318.87 458.216C1318.73 459.578 1318.77 460.952 1319 462.303C1319.67 466.795 1322.89 469.917 1326.87 472.008C1327.8 472.001 1328.71 472.316 1329.43 472.899C1329.61 473.046 1329.77 473.206 1329.91 473.378L1330.03 473.422C1332.59 474.482 1335.4 475.101 1338.34 475.992C1337.6 476.257 1336.9 476.456 1336.16 476.684C1334.34 477.184 1332.47 477.495 1330.58 477.612C1330.44 477.958 1330.24 478.282 1330.01 478.577L1329.27 479.482C1323.48 486.53 1318.89 492.097 1316.66 497.391C1313.91 503.827 1315.04 507.583 1316.48 512.34C1317.63 515.636 1318.28 519.083 1318.41 522.568C1318.41 526.36 1317.67 530.285 1316.85 534.085C1315.84 538.989 1314.69 544.541 1316.62 546.066C1319.47 548.326 1322.87 548.967 1325.71 547.767C1330.45 545.764 1333.71 538.79 1334.67 528.621C1335.41 520.3 1339.75 517.399 1342.24 516.404C1345.86 515.004 1349.95 515.603 1353.01 517.98C1353.14 518.091 1353.25 518.209 1353.37 518.334C1359.1 524.703 1358.84 533.798 1358.56 543.371C1358.36 547.66 1358.39 551.957 1358.66 556.243C1359.2 562.87 1362.85 565.352 1366.07 565.491C1369.71 565.646 1373.93 562.914 1374.97 556.471C1375.41 553.893 1375.61 546.64 1374.97 538.511C1374.18 531.765 1372.97 525.074 1371.36 518.474C1370.83 516.371 1372.06 514.225 1374.16 513.615C1376.25 513.005 1378.46 514.149 1379.15 516.206C1381.38 522.745 1382.53 530.609 1383.07 537.796C1383.47 540.918 1383.81 544.063 1384.19 547.266L1384.44 549.475C1385.01 554.468 1388.08 559.858 1392.05 559.858C1397.29 559.858 1399.83 557.892 1400.05 546.846C1400.07 541.626 1399.61 536.415 1398.67 531.279C1397.93 528.275 1397.29 525.145 1396.64 522.03C1396.23 520.116 1395.83 518.231 1395.44 516.434C1394.62 513.253 1393.69 509.927 1392.65 506.456C1392.04 504.387 1393.17 502.205 1395.23 501.502C1397.28 500.799 1399.53 501.823 1400.33 503.827C1401.61 507.348 1402.62 510.959 1403.36 514.63C1404.74 519.996 1405.82 524.978 1406.61 529.578C1407.28 532.511 1408.12 535.4 1409.14 538.231C1410.89 542.863 1412.29 543.673 1412.49 543.673C1417.91 542.936 1419.13 540.359 1419.6 537.892C1421.03 530.351 1415.36 515.801 1404.43 498.982C1394.01 482.877 1383.38 471.537 1379.72 469.549Z" fill="white" stroke="white" stroke-width="9.29992" stroke-miterlimit="10" stroke-linecap="round"/>
<path d="M1036 182.671C1034.16 182.577 1032.33 182.531 1030.51 182.531C975.791 182.531 929.904 225.241 927.005 280.138C924.039 336.839 968.043 385.44 1025.15 388.385C1082.25 391.331 1131.17 347.627 1134.14 290.911C1137.1 234.195 1093.11 185.646 1036 182.671Z" fill="#FFC23B" stroke="#FFC23B" stroke-width="9.29992" stroke-miterlimit="10" stroke-linecap="round"/>
<path d="M1330.19 179.6C1321.22 131.581 1299.63 93.7088 1266.01 67.0961C1232.62 40.6454 1187.84 25.5791 1132.9 22.2801C1125.88 21.8603 1119.27 21.6689 1112.96 21.6689C1082.42 21.6689 1059.37 26.1976 1033.38 31.3007C1007.38 36.4038 977.86 42.2065 935.806 44.0474C889.036 46.0945 847.879 60.2477 816.776 85.0563C782.944 112.059 761.799 150.189 754.029 198.4C744.783 255.624 750.47 311.743 770.488 360.683C791.716 412.619 828.446 453.724 876.691 479.571C969.214 529.085 1068.72 540.256 1156.95 511.029C1208.53 493.908 1262.89 460.175 1287.12 411.206C1286.15 411.323 1285.18 411.456 1284.2 411.603C1280.77 412.133 1277.19 412.568 1273.82 411.603C1265.54 409.335 1264.18 400.366 1265.77 393.113C1269.2 377.45 1284.39 371.294 1299.14 371.912C1299.75 367.144 1300.08 362.345 1300.13 357.538C1300.47 326.08 1309.03 301.507 1317.34 277.744C1327.76 247.825 1337.63 219.534 1330.19 179.6ZM1145.13 291.529C1141.93 352.251 1091.17 399.505 1030.64 399.505C1028.63 399.505 1026.6 399.453 1024.57 399.35C961.4 396.058 912.702 342.339 916.009 279.6C919.316 216.861 973.389 168.451 1036.58 171.765C1099.77 175.079 1148.47 228.753 1145.13 291.493V291.529Z" fill="#FFFEF3" stroke="#FFFEF3" stroke-width="9.29992" stroke-miterlimit="10" stroke-linecap="round"/>
<path d="M755.801 467.502L755.445 467.546C755.645 467.656 755.853 467.759 756.06 467.862C755.971 467.745 755.882 467.627 755.801 467.502ZM1359.64 451.809C1359.56 451.951 1359.48 452.089 1359.39 452.222C1359.59 452.104 1359.8 451.979 1360 451.846C1359.88 451.841 1359.76 451.829 1359.64 451.809Z" fill="#FFFDEB"/>
<path d="M1385.5 463.687C1388.22 459.836 1389.52 454.733 1388.9 449.092C1388.28 443.03 1385.42 437.412 1380.87 433.326C1377.25 430.116 1370.83 426.463 1360.85 427.34C1360.72 427.34 1360.59 427.391 1360.46 427.413C1357.01 416.494 1351.59 406.291 1344.46 397.303C1335.7 386.132 1324.26 377.421 1310.73 373.739C1311.42 368.412 1311.8 363.049 1311.86 357.678C1312.18 328.12 1320.44 304.46 1328.42 281.581C1338.91 251.515 1349.76 220.462 1341.77 177.464C1332.29 126.595 1309.27 86.3892 1273.37 57.9576C1238.05 29.9753 1191.07 14.0621 1133.67 10.638C1091.08 8.0901 1063.32 13.5835 1031.17 19.8574C1005.55 24.8869 976.518 30.5865 935.353 32.3759C886.078 34.5408 842.556 49.5997 809.495 75.94C791.976 89.906 777.321 107.085 766.329 126.544C754.666 147.096 746.629 170.646 742.447 196.5C732.861 255.83 738.807 314.099 759.626 365.02C764.536 377.072 770.347 388.742 777.013 399.932C764.905 411.704 756.529 426.737 752.916 443.179H752.731C742.707 443.083 736.575 447.185 733.209 450.668C728.989 455.085 726.569 460.899 726.418 466.986C726.232 472.656 727.901 477.649 730.933 481.287C724.942 486.441 715.363 499.829 707.578 514.092C693.624 539.667 692.89 553.164 694.736 559.976C696.582 566.787 701.891 570.757 709.684 571.162C711.612 571.3 713.526 570.749 715.081 569.608C716.09 576.559 719.196 586.714 732.342 585.742C735.975 585.477 739.697 583.466 742.44 579.851C745.836 586.545 751.93 589.468 757.365 589.468C757.942 589.467 758.519 589.433 759.093 589.365C765.958 588.555 772.906 582.737 772.95 571.611C772.898 567.022 772.589 562.439 772.023 557.885C771.171 549.784 770.429 542.833 773.425 538.569C774.147 538.166 775.004 538.073 775.797 538.312C777.102 538.776 778.14 540.69 778.629 543.555C781.595 560.558 788.846 566.382 794.437 568.238C800.227 570.182 806.611 568.643 811.49 564.122C816.932 559.085 814.641 551.11 812.617 544.07C811.668 540.742 810.674 537.303 810.481 534.379C810.399 531.647 810.721 528.918 811.438 526.279C812.631 520.874 813.981 514.748 809.384 505.941C806.47 500.359 801.547 494.998 795.779 488.967C796.342 488.702 796.898 488.422 797.447 488.106C807.612 482.148 807.953 468.893 801.895 459.902C797.447 452.988 789.15 447.781 780.854 448.304C784.127 440.266 789.696 433.355 796.876 428.422C817.226 453.642 842.492 474.522 871.16 489.814C909.885 510.536 949.826 524.718 989.722 532.251C983.68 545.182 980.781 561.574 981.307 580.116C981.787 594.945 984.144 609.656 988.321 623.901C973.322 614.365 957.181 609.468 942.293 610.035C924.313 610.705 908.187 619.939 899.164 634.726C891.201 647.782 887.991 667.863 898.778 683.202C910.901 700.47 935.546 702.627 953.548 704.203C960.419 704.807 967.188 705.106 973.856 705.101C987.861 705.157 1001.83 703.727 1015.53 700.838C1016.74 700.584 1017.91 700.176 1019.02 699.623C1027.22 712.288 1038.43 715.47 1053.61 716.353C1054.26 716.39 1054.94 716.412 1055.67 716.412C1069.91 716.412 1098.42 709.365 1110.58 705.3C1112.06 704.814 1113.65 704.291 1115.39 703.732C1137 696.721 1177.23 683.68 1171.37 658.231C1168.29 644.858 1159.19 627.981 1145.79 620.425C1140.34 617.296 1134.18 615.61 1127.88 615.528C1127.83 615.388 1127.77 615.25 1127.71 615.116C1115.43 588.754 1114.5 562.833 1124.83 531.655C1136.95 529.155 1148.92 525.959 1160.67 522.082C1200.49 508.886 1236.74 487.936 1262.74 463.091C1277.84 448.658 1289.67 432.862 1297.88 416.154C1298.71 414.475 1299.49 412.781 1300.24 411.08C1309.75 412.185 1318.18 416.095 1324.76 423.209C1327.95 426.646 1330.65 430.495 1332.8 434.652C1324.64 434.932 1316.94 440.69 1313.11 447.804C1307.74 457.229 1309.09 470.418 1319.69 475.587C1320.26 475.86 1320.84 476.095 1321.42 476.323C1316.13 482.781 1311.64 488.496 1309.16 494.284C1305.25 503.407 1307.07 509.416 1308.67 514.718C1309.59 517.288 1310.12 519.977 1310.25 522.701C1310.25 525.646 1309.55 529.136 1308.86 532.516C1307.37 539.696 1305.71 547.826 1311.53 552.399C1316.75 556.537 1323.23 557.59 1328.86 555.212C1338.7 551.058 1341.83 538.879 1342.72 529.402C1342.99 526.508 1343.88 524.527 1345.15 523.96C1345.92 523.66 1346.78 523.687 1347.53 524.033C1350.85 528.054 1350.64 535.079 1350.41 543.179C1350.2 547.763 1350.24 552.355 1350.54 556.935C1351.44 568.039 1358.81 573.297 1365.72 573.592H1366.33C1372.04 573.592 1378.52 570.241 1381.59 562.833C1384.56 566.198 1388.45 567.921 1392.09 567.921C1405.28 567.921 1407.59 557.531 1408.06 550.528C1409.7 551.546 1411.65 551.949 1413.55 551.662C1421.3 550.668 1426.29 546.309 1427.64 539.379C1430.02 526.817 1420.08 508.098 1411.33 494.6C1402.46 480.999 1391.88 468.385 1385.5 463.687ZM755.801 467.502C755.882 467.627 755.971 467.745 756.06 467.862C755.853 467.759 755.645 467.656 755.445 467.546L755.801 467.502ZM796.92 470.801C797.171 472.146 797.233 473.518 797.106 474.88C796.78 479.409 793.814 482.767 790.003 485.189C789.075 485.258 788.198 485.64 787.519 486.272C787.357 486.431 787.208 486.604 787.074 486.787L786.963 486.839C784.494 488.091 781.773 488.923 778.874 490.035C779.615 490.248 780.357 490.388 781.098 490.565C782.955 490.918 784.843 491.084 786.733 491.058C786.904 491.393 787.121 491.703 787.378 491.979L788.201 492.833C794.511 499.424 799.493 504.615 802.155 509.726C805.402 515.933 804.557 519.77 803.49 524.615C802.602 527.977 802.22 531.451 802.355 534.924C802.615 538.709 803.719 542.561 804.794 546.287C806.174 551.103 807.76 556.552 805.936 558.223C803.267 560.69 799.923 561.581 797.039 560.602C792.168 558.967 788.379 552.259 786.659 542.192C785.243 533.96 780.728 531.382 778.17 530.587C774.457 529.463 770.423 530.37 767.56 532.973C767.441 533.091 767.329 533.217 767.226 533.349C761.992 540.131 762.955 549.166 763.964 558.732C764.48 563.009 764.757 567.311 764.794 571.618C764.794 578.246 761.324 581.022 758.121 581.397C754.481 581.839 750.092 579.424 748.52 573.084C747.89 570.55 747.133 563.326 747.126 555.175C747.402 548.39 748.091 541.627 749.187 534.924C749.537 532.798 748.142 530.773 746.02 530.326C743.897 529.879 741.795 531.168 741.246 533.253C739.541 539.939 738.985 547.87 739.022 555.072C738.866 558.216 738.748 561.375 738.629 564.586L738.548 566.795C738.362 571.824 735.708 577.435 731.749 577.723C726.522 578.12 723.838 576.36 722.77 565.359C722.346 560.156 722.406 554.925 722.948 549.733C723.437 546.684 723.852 543.511 724.268 540.359C724.52 538.415 724.772 536.5 725.009 534.681C725.572 531.422 726.237 528.025 727.003 524.49C727.342 522.438 726.054 520.466 724.029 519.936C722.004 519.406 719.905 520.491 719.181 522.443C718.163 526.047 717.42 529.722 716.957 533.437C715.998 538.901 715.301 543.955 714.866 548.599C714.426 551.579 713.805 554.53 713.005 557.435C711.626 562.156 710.299 563.113 710.084 563.113C704.62 562.826 703.211 560.315 702.558 557.892C700.549 550.484 705.087 535.55 714.688 517.944C723.889 501.073 733.624 488.96 737.109 486.699C737.311 486.568 737.5 486.417 737.673 486.25C739.481 486.97 741.398 487.386 743.345 487.48H743.537C745.585 487.532 747.288 485.927 747.341 483.893C747.394 481.86 745.778 480.169 743.73 480.116C736.62 479.748 733.632 473.393 733.832 467.259C734.092 459.07 739.763 450.874 751.701 450.609C751.181 455.186 751.099 459.802 751.456 464.394C751.47 464.566 751.5 464.736 751.545 464.902C750.022 463.555 748.723 461.977 747.697 460.226C746.864 458.817 745.038 458.346 743.619 459.173C742.2 460.001 741.725 461.814 742.559 463.223C746.866 470.513 754.422 475.116 763.89 476.184C765.283 476.339 766.684 476.418 768.086 476.419C775.501 476.419 782.685 474.298 785.881 470.963C787.013 469.775 786.961 467.901 785.766 466.776C784.57 465.652 782.683 465.703 781.551 466.89C780.578 467.755 779.434 468.407 778.192 468.805V468.717C778.395 468.169 778.459 467.579 778.377 467.001C777.64 461.377 778.229 455.659 780.097 450.3C788.876 454.225 795.186 461.854 796.92 470.801ZM1014.9 691.824C1014.49 692.021 1014.06 692.164 1013.62 692.252C995.209 696.213 975.25 697.288 954.304 695.455C938.045 694.026 915.75 692.082 906.03 678.187C897.57 666.132 900.461 649.586 906.727 639.313C914.2 627.067 927.613 619.431 942.604 618.849C957.596 618.268 973.93 624.004 988.914 635.05C989.275 635.304 989.673 635.502 990.093 635.639C992.355 637.009 996.217 639.424 998.249 640.845C1000.72 642.544 1003.14 644.338 1005.51 646.228C1008.18 648.338 1010.71 650.602 1013.11 653.01C1012.6 651.224 1011.98 649.475 1011.23 647.774C1008.59 641.702 1004.66 636.267 999.71 631.839V631.692C1009.11 631.589 1020.35 633.165 1028.31 636.419C1027.27 637.336 1026.27 638.292 1025.3 639.284C1011.66 653.43 1007.75 674.254 1014.9 691.824ZM1074.96 586.139C1079.88 599.968 1086.53 613.127 1094.75 625.307C1076.26 620.403 1054.01 620.087 1036.43 630.499C1032.12 628.182 1027.51 626.458 1022.72 625.374C1022.81 624.917 1022.82 624.45 1022.76 623.989C1019.45 598.783 1018.25 571.515 1042.48 539.733C1042.8 539.311 1043.03 538.838 1043.18 538.334C1047.69 538.511 1052.19 538.601 1056.67 538.606C1060.68 538.606 1064.69 538.525 1068.69 538.385C1066.78 552.509 1068.91 568.871 1074.96 586.139ZM1141.38 628.113C1149.09 632.465 1159.04 644.365 1162.69 660.227C1166.75 677.841 1130.17 689.682 1112.6 695.396C1110.83 695.97 1109.19 696.5 1107.71 696.994C1095.85 700.963 1066.14 708.29 1054.09 707.605C1040.41 706.81 1031.79 704.277 1025.41 693.224C1016.76 678.253 1019.43 658.12 1031.75 645.359C1041.99 634.748 1056.07 630.793 1070.19 630.793C1079.89 630.867 1089.51 632.519 1098.68 635.683C1099.12 635.832 1099.59 635.912 1100.06 635.919C1102.64 636.559 1106.99 637.693 1109.37 638.43C1112.23 639.323 1115.08 640.305 1117.92 641.375C1121.1 642.597 1124.2 644.003 1127.21 645.587C1126.19 644.041 1125.06 642.565 1123.84 641.169C1119.49 636.158 1114.09 632.139 1108.03 629.387C1108.03 629.225 1107.97 629.07 1107.92 628.916C1120.62 623.768 1131.08 622.281 1141.38 628.098V628.113ZM1300.1 357.568C1300.05 362.374 1299.72 367.174 1299.11 371.942C1284.38 371.323 1269.18 377.479 1265.74 393.142C1264.15 400.396 1265.51 409.342 1273.79 411.633C1277.19 412.568 1280.77 412.133 1284.17 411.633C1285.15 411.485 1286.12 411.353 1287.09 411.235C1262.89 460.175 1208.53 493.908 1156.92 510.999C1068.73 540.226 969.214 529.055 876.662 479.541C828.417 453.724 791.686 412.619 770.444 360.683C750.425 311.743 744.738 255.624 753.984 198.4C761.769 150.189 782.9 112.059 816.776 85.0711C847.879 60.2919 889.036 46.1093 935.806 44.0622C977.86 42.2212 1007.35 36.4259 1033.38 31.3155C1059.4 26.205 1082.48 21.6836 1112.99 21.6836C1119.3 21.6836 1125.91 21.8751 1132.93 22.2948C1187.84 25.5791 1232.62 40.6454 1266.01 67.0961C1299.63 93.7088 1321.22 131.581 1330.19 179.6C1337.6 219.534 1327.76 247.825 1317.31 277.774C1309.01 301.537 1300.46 326.11 1300.1 357.568ZM1359.64 451.824C1359.76 451.844 1359.88 451.856 1360 451.861C1359.8 451.994 1359.59 452.119 1359.39 452.237C1359.48 452.099 1359.56 451.956 1359.64 451.809V451.824ZM1419.65 537.929C1419.18 540.396 1417.97 543.01 1412.55 543.709C1412.35 543.709 1410.94 542.899 1409.2 538.268C1408.17 535.437 1407.33 532.548 1406.66 529.615C1405.87 525.02 1404.79 520.037 1403.41 514.667C1402.67 510.996 1401.66 507.385 1400.38 503.864C1399.58 501.86 1397.33 500.836 1395.28 501.539C1393.23 502.242 1392.09 504.424 1392.71 506.493C1393.74 509.964 1394.67 513.29 1395.49 516.471C1395.89 518.268 1396.29 520.153 1396.69 522.067C1397.34 525.182 1398 528.312 1398.72 531.316C1399.66 536.452 1400.12 541.663 1400.11 546.883C1399.88 557.929 1397.34 559.88 1392.1 559.895C1388.13 559.895 1385.06 554.505 1384.49 549.512L1384.25 547.303C1383.88 544.1 1383.5 540.955 1383.12 537.833C1382.59 530.646 1381.42 522.782 1379.2 516.242C1378.51 514.186 1376.3 513.042 1374.21 513.652C1372.11 514.262 1370.88 516.408 1371.41 518.511C1373.02 525.111 1374.23 531.802 1375.02 538.547C1375.65 546.648 1375.45 553.93 1375.02 556.508C1373.95 562.951 1369.74 565.683 1366.13 565.528C1362.89 565.388 1359.24 562.892 1358.71 556.279C1358.44 551.994 1358.41 547.697 1358.61 543.407C1358.88 533.798 1359.15 524.718 1353.42 518.371C1353.31 518.246 1353.19 518.128 1353.06 518.017C1350 515.64 1345.91 515.041 1342.3 516.441C1339.8 517.435 1335.5 520.337 1334.72 528.658C1333.76 538.82 1330.5 545.793 1325.76 547.804C1322.92 549.004 1319.53 548.363 1316.67 546.103C1314.74 544.578 1315.93 539.026 1316.9 534.122C1317.68 530.322 1318.49 526.397 1318.46 522.605C1318.33 519.119 1317.68 515.673 1316.53 512.377C1315.09 507.619 1313.96 503.864 1316.72 497.428C1318.99 492.133 1323.55 486.566 1329.32 479.519L1330.06 478.614C1330.3 478.319 1330.49 477.995 1330.63 477.649C1332.52 477.532 1334.39 477.221 1336.22 476.721C1336.96 476.493 1337.7 476.294 1338.39 476.029C1335.42 475.138 1332.64 474.556 1330.08 473.459L1329.97 473.415C1329.82 473.243 1329.66 473.082 1329.48 472.936C1328.76 472.353 1327.85 472.038 1326.92 472.045C1322.94 469.954 1319.73 466.832 1319.05 462.34C1318.83 460.989 1318.78 459.615 1318.92 458.253C1319.95 449.313 1325.59 441.316 1333.81 436.655C1336.3 441.969 1337.41 447.816 1337.05 453.665C1337.02 454.019 1337.06 454.374 1337.14 454.718C1335.99 454.411 1334.9 453.877 1333.95 453.15C1332.73 452.054 1330.84 452.154 1329.73 453.374C1328.63 454.594 1328.73 456.472 1329.96 457.568C1332.92 460.234 1338.81 461.773 1345.14 461.773C1347.53 461.775 1349.92 461.553 1352.27 461.11C1361.6 459.328 1368.81 454.166 1372.55 446.574C1373.01 445.624 1372.94 444.499 1372.34 443.622C1371.75 442.745 1370.73 442.249 1369.66 442.322C1368.6 442.395 1367.66 443.025 1367.19 443.974C1366.31 445.778 1365.15 447.435 1363.75 448.886V448.665C1363.75 443.965 1363.27 439.278 1362.32 434.674C1374.36 433.982 1380.64 441.736 1381.53 449.91C1382.2 456.007 1379.72 462.575 1372.64 463.481C1370.59 463.609 1369.03 465.361 1369.16 467.395C1369.29 469.428 1371.05 470.973 1373.1 470.845C1373.27 470.856 1373.43 470.856 1373.59 470.845C1375.52 470.602 1377.4 470.042 1379.14 469.188C1379.33 469.34 1379.53 469.475 1379.74 469.593C1383.39 471.581 1394.03 482.921 1404.49 499.048C1415.39 515.83 1421.08 530.381 1419.65 537.914V537.929Z" fill="#090100"/>
<path d="M1036.58 171.765C973.389 168.466 919.323 216.839 916.009 279.578C912.695 342.317 961.4 396.022 1024.57 399.306C1026.6 399.409 1028.63 399.46 1030.64 399.46C1091.17 399.46 1141.93 352.207 1145.13 291.485C1148.47 228.753 1099.74 175.034 1036.58 171.765ZM1134.14 290.918C1131.17 347.619 1082.24 391.345 1025.15 388.393C968.058 385.44 924.017 336.846 927.005 280.145C929.904 225.255 975.791 182.538 1030.51 182.538C1032.33 182.538 1034.16 182.585 1036 182.678C1093.11 185.646 1137.13 234.202 1134.14 290.918Z" fill="#090100"/>
<path d="M1051.58 330.337C1055.83 332.253 1059.55 334.782 1062.53 338.18C1065.33 341.399 1067.19 344.975 1067.68 349.114C1068.04 352.256 1066.81 354.658 1063.85 356.37C1061.38 357.8 1058.65 358.005 1055.85 357.775C1053.03 357.519 1050.27 356.906 1047.61 355.986C1046.16 355.475 1044.71 354.99 1043.26 354.453C1039.73 353.125 1036.03 352.64 1032.25 352.64C1028.69 352.64 1025.24 353.253 1021.79 353.891C1019.77 354.3 1017.8 354.837 1015.85 355.526C1011.34 357.085 1006.65 357.519 1001.89 356.651C1000.36 356.395 998.879 355.91 997.51 355.22C996.771 354.811 996.059 354.326 995.457 353.764C994.307 352.742 993.622 351.311 993.622 349.804C993.568 346.304 994.718 343.11 996.689 340.198C998.66 337.285 1001.29 334.935 1004.33 332.942C1008.08 330.49 1012.24 328.829 1016.65 327.654C1020.1 326.76 1023.63 326.198 1027.22 326.019C1035.73 325.585 1043.89 326.888 1051.58 330.337Z" fill="#2C272C"/>
<path d="M1003.43 352.794C1002.99 352.794 1002.53 352.769 1002.06 352.743H1002.01C1001.82 352.718 1001.62 352.667 1001.46 352.616C1001.32 352.565 1001.21 352.488 1001.13 352.36C1000.86 351.9 1001.02 351.517 1001.1 351.236L1001.13 351.185C1002.42 347.557 1004.64 344.185 1007.7 341.17C1012.22 336.751 1018 333.634 1024.9 331.922C1028.43 331.028 1032.04 330.594 1035.71 330.594C1039.62 330.594 1043.51 331.105 1047.26 332.126C1050.14 332.867 1052.88 333.991 1055.42 335.422C1055.97 335.703 1056.49 336.061 1056.9 336.495C1059.2 339.05 1060.6 342.141 1060.95 345.437C1061.17 347.148 1060.46 348.86 1059.04 349.984C1057.31 351.44 1055.5 352.181 1053.51 352.181C1053.29 352.181 1053.1 352.181 1052.88 352.156C1050.44 352.003 1048 351.619 1045.62 351.057C1043.79 350.597 1041.84 350.01 1039.49 349.192C1036.64 348.196 1033.49 347.608 1029.85 347.43C1029.3 347.404 1028.78 347.378 1028.24 347.378C1023.75 347.378 1019.17 348.298 1013.92 350.265C1013.4 350.444 1012.93 350.674 1012.41 350.904C1011.62 351.262 1010.82 351.645 1009.92 351.875C1007.84 352.488 1005.65 352.794 1003.43 352.794Z" fill="#FC95C1"/>
<path d="M1030.98 297.884C1036.56 306.271 1044.3 311.392 1052.99 311.392C1070.35 311.392 1083.96 290.922 1083.96 264.796C1083.96 238.669 1070.35 218.206 1052.99 218.206C1044.3 218.206 1036.51 223.327 1030.97 231.722C1025.21 223.086 1017.4 218.206 1009.02 218.206C991.65 218.206 978.045 238.669 978.045 264.796C978.045 290.922 991.65 311.392 1009.02 311.392C1017.44 311.362 1025.25 306.497 1030.98 297.884ZM1074.93 264.796C1074.93 285.575 1064.88 303.126 1052.99 303.126C1049.13 303.126 1045.48 301.278 1042.28 298.095H1042.37C1047.99 298.095 1052.94 291.775 1055.75 282.256L1041.95 276.562L1057.43 273.205C1057.9 270.127 1058.17 267.027 1058.26 263.921C1058.26 262.095 1058.18 260.308 1058.05 258.558H1074.63C1074.82 260.557 1074.93 262.646 1074.93 264.765V264.796ZM1052.99 226.473C1061.96 226.473 1069.88 236.459 1073.23 250.284H1032.73C1036.09 236.429 1044.01 226.442 1052.99 226.442V226.473ZM988.751 250.284C992.103 236.459 1000.02 226.473 1009 226.473C1014.44 226.473 1019.82 230.319 1023.96 237.107C1022.03 241.345 1020.62 245.764 1019.75 250.284H988.751ZM999.135 276.871L1013.67 273.726C1014.07 270.657 1014.27 267.569 1014.26 264.479C1014.26 262.457 1014.18 260.474 1014.02 258.55H1018.65C1018.52 260.315 1018.44 262.103 1018.44 263.913C1018.44 273.96 1020.56 283.734 1024.43 291.707C1020.24 298.993 1014.68 303.126 1009 303.126C1005.37 303.126 1001.92 301.489 998.864 298.601C1004.43 298.254 1009.27 291.76 1011.97 282.143L999.135 276.871Z" fill="#090100"/>
<path d="M1058.42 272.458C1058.87 269.219 1059.14 265.958 1059.22 262.69C1059.22 260.769 1059.15 258.889 1059.02 257.04H1075.25C1075.45 259.182 1075.56 261.38 1075.56 263.61C1075.56 285.472 1065.71 303.937 1054.06 303.937C1050.27 303.937 1046.7 301.993 1043.57 298.644H1043.66C1049.17 298.644 1054.01 292.002 1056.77 281.98L1043.25 275.989L1058.42 272.458Z" fill="white"/>
<path d="M1011 304.016C1007.44 304.016 1004.06 302.262 1001.07 299.255C1006.52 298.85 1011.27 292.018 1013.91 281.948L1001.34 276.394L1015.57 273.085C1015.96 269.856 1016.16 266.608 1016.15 263.356C1016.15 261.23 1016.07 259.143 1015.92 257.119H1020.45C1020.33 258.976 1020.24 260.857 1020.24 262.761C1020.24 273.331 1022.32 283.615 1026.12 292.002C1022.01 299.668 1016.57 304.016 1011 304.016Z" fill="white"/>
<mask id="mask0_0_1" style="mask-type:luminance" maskUnits="userSpaceOnUse" x="0" y="0" width="758" height="727">
<path d="M0 0H757.453V726.513H0V0Z" fill="white"/>
</mask>
<g mask="url(#mask0_0_1)">
<path d="M152.139 200.699C152.139 102.297 258.651 22.2408 389.57 22.2408C520.489 22.2408 626.977 102.297 626.977 200.699C626.977 248.185 602.395 292.895 557.753 326.598C556.376 327.637 555.572 329.227 555.571 330.911V558.909C555.571 569.817 544.257 578.685 530.349 578.685H248.767C245.872 578.688 242.991 578.294 240.212 577.514C239.717 577.258 239.183 577.076 238.631 576.974L238.386 576.928C229.633 573.817 223.529 566.903 223.529 558.894V330.911C223.528 329.227 222.724 327.637 221.347 326.598C176.721 292.895 152.139 248.185 152.139 200.699Z" fill="#F9F6E1" stroke="#F9F6E1" stroke-width="9.62016" stroke-miterlimit="10" stroke-linecap="round"/>
<path d="M390.21 248.36C390.291 251.493 390.555 254.619 391.001 257.723L405.866 261.108L392.614 266.851C395.318 276.458 400.062 282.824 405.462 282.824H405.549C402.489 286.034 398.987 287.898 395.271 287.898C383.853 287.898 374.199 270.198 374.199 249.242C374.199 247.105 374.31 244.998 374.5 242.944H390.408C390.281 244.717 390.21 246.519 390.21 248.36ZM447.21 283.41C444.276 286.293 440.963 287.974 437.477 287.974C432.021 287.974 426.684 283.805 422.659 276.458C426.383 268.418 428.415 258.56 428.415 248.429C428.415 246.603 428.336 244.8 428.21 243.021H432.653C432.503 244.96 432.424 246.961 432.424 248.999C432.42 252.116 432.611 255.23 432.993 258.324L446.949 261.496L434.622 266.821C437.216 276.473 441.865 283.022 447.21 283.41ZM434.804 329.192C435.808 332.843 429.538 340.693 418.611 346.55C417.241 347.28 415.852 347.952 414.444 348.565L420.026 324.484C429.973 324.796 434.219 327.047 434.804 329.192ZM380.572 314.352C380.631 314.102 380.666 313.848 380.675 313.592C382.256 314.405 383.901 315.349 385.577 316.33C387.253 317.311 389.174 318.429 391.048 319.372V319.502L383.371 352.581C379.544 352.047 375.808 351.024 372.262 349.539C372.459 349.2 372.608 348.836 372.705 348.459L380.572 314.352ZM411.313 324.263L404.988 351.646C400.732 352.626 396.373 353.136 391.997 353.167L399.113 322.384C403.114 323.356 407.197 323.985 411.313 324.263ZM364.015 313.417C366.638 311.808 369.718 311.031 372.823 311.196C372.539 311.611 372.336 312.072 372.222 312.557L364.719 344.914C358.22 339.346 356.022 331.497 358.141 321.555C358.878 318.191 360.996 315.256 364.015 313.417ZM266.708 599.2C269.209 600.132 271.611 601.297 273.879 602.676C276.637 604.331 279.548 605.737 282.576 606.874C280.758 611.727 276.077 624.369 288.491 632.043C288.528 632.26 288.581 632.473 288.649 632.682C289.221 634.536 289.693 636.418 290.064 638.319L290.309 639.384L290.807 641.757C291.898 646.959 293.124 652.847 296.12 657.935C296.326 658.285 296.547 658.612 296.777 658.939C292.439 660.026 288.291 661.72 284.466 663.967C282.921 664.888 281.439 665.904 280.03 667.01C283.29 666.438 286.583 666.055 289.89 665.861C292.847 665.678 295.788 665.602 298.706 665.618C300.706 665.618 304.043 665.777 306.613 665.914C309.14 666.803 311.722 667.537 314.345 668.112L315.326 668.341C322.062 669.953 327.289 672.098 330.902 677.324C334.195 681.95 335.571 687.593 334.761 693.145C333.416 701.595 326.292 711.955 310.345 715.682C295.78 719.09 279.754 717.492 265.221 711.179C252.015 705.393 241.079 695.694 234.013 683.5C226.994 671.389 223.161 657.81 222.849 643.947C222.398 628.126 225.751 616.451 233.08 608.251C241.398 599.035 254.625 595.474 266.708 599.2ZM450.807 652.04C448.339 656.327 446.176 660.769 444.332 665.336C443.471 667.472 444.574 669.875 446.795 670.702C449.015 671.53 451.513 670.469 452.373 668.333C454.69 662.581 457.557 657.048 460.936 651.805C469.744 638.113 481.185 628.058 494.017 622.688C507.23 617.158 521.43 618.999 531.29 626.856C521.691 627.563 512.314 630.941 503.292 636.95C493.503 643.483 484.213 653.204 476.409 665.093C461.205 688.223 449.574 704.265 429.119 713.834C420.627 702.767 418.437 685.333 424.019 671.512C428.313 660.879 437.477 655.798 450.807 652.04ZM623.023 357.951C625.601 355.342 629.175 354.239 632.978 353.943C633.872 354.313 634.872 354.375 635.808 354.118C636.042 354.051 636.269 353.967 636.488 353.867H636.591C639.469 353.867 642.403 354.422 645.573 354.749C644.782 353.988 643.739 353.228 642.845 352.543C641.588 351.689 640.267 350.926 638.892 350.261C638.898 349.881 638.845 349.501 638.734 349.136L638.394 347.995C635.769 339.225 633.65 332.295 633.705 326.522C633.705 319.502 636.338 316.482 639.659 312.656C642.079 310.052 644.086 307.117 645.613 303.947C647.194 300.463 648.04 296.523 648.854 292.712C649.906 287.791 651.092 282.216 653.551 281.562C657.204 280.596 660.667 281.341 662.913 283.554C666.605 287.259 666.866 294.964 663.593 304.73C662.873 306.89 660.675 313.462 664.644 317.273C666.273 318.794 669.388 320.315 674.844 318.635C675.011 318.585 675.175 318.524 675.334 318.452C684.482 314.345 688.973 305.62 694.176 295.527C695.33 293.29 696.548 290.963 697.805 288.62C701.031 282.733 705.538 281.851 708.677 282.999C712.235 284.292 715.097 288.445 713.484 294.819C712.875 297.223 706.463 305.985 695.528 318.193C693.807 319.866 692.201 321.644 690.72 323.518C689.331 325.248 689.621 327.726 691.375 329.116C693.129 330.506 695.714 330.304 697.212 328.66C698.453 327.321 700.011 325.617 701.719 323.723C703.355 322.149 705.063 320.681 706.826 319.159C711.365 315.212 716.061 311.135 719.635 305.095C722.237 300.707 727.376 296.934 731.155 298.501C736.152 300.562 737.765 303.361 733.448 313.645C733.126 314.417 732.729 315.158 732.262 315.858C725.984 318.865 718.563 324.271 709.997 332.075C707.983 333.637 706.129 335.382 704.462 337.285C703.067 338.959 703.269 341.388 704.922 342.827C706.576 344.267 709.109 344.218 710.701 342.716C711.997 341.461 713.713 339.826 715.706 338.023C718.481 335.964 721.385 334.071 724.403 332.356C729.234 329.496 734.184 326.56 737.765 322.278C741.916 320.589 743.561 321.228 743.948 321.449C748.835 324.218 748.914 327.108 748.345 329.565C746.621 337.087 735.251 348.291 717.935 359.541C701.331 370.319 686.562 376.617 682.268 377.036C682.016 377.058 681.768 377.104 681.525 377.172C680.217 375.696 678.658 374.444 676.915 373.468C675.726 372.722 674.206 372.665 672.959 373.319C671.713 373.974 670.941 375.234 670.95 376.6C670.958 377.967 671.747 379.218 673.002 379.857C679.327 383.47 679.034 390.506 675.895 395.876C671.705 403.049 662.565 407.75 651.424 402.448C654.085 398.666 656.367 394.649 658.24 390.453C658.335 390.231 658.412 390.002 658.469 389.768C659.23 391.682 659.668 393.7 659.766 395.747C659.854 397.324 661.208 398.56 662.849 398.561H663.007C664.709 398.475 666.018 397.08 665.933 395.443C665.49 386.969 660.738 379.386 652.571 374.077C645.012 369.171 635.247 366.813 629.863 368.608C628.251 369.143 627.396 370.834 627.953 372.384C628.51 373.934 630.267 374.757 631.879 374.221C633.134 373.912 634.441 373.85 635.721 374.039C635.339 374.422 635.05 374.881 634.875 375.385C632.851 380.794 629.473 385.64 625.039 389.495C622.314 386.129 620.375 382.237 619.355 378.085C617.773 370.882 618.137 363.222 623.023 357.951ZM670.463 336.699C671.468 338.373 673.049 339.4 674.29 340.784C675.761 342.427 677.189 344.136 678.576 345.911C680.521 348.421 682.363 351.052 684.11 353.783C684.843 354.77 685.509 355.802 686.103 356.871C686.656 358.027 687.842 359.784 688.08 361.039C687.374 357.246 686.413 353.501 685.202 349.828C684.674 348.165 684.076 346.522 683.407 344.899C681.462 339.993 679.082 334.516 675.808 330.729C674.97 329.77 673.768 328.089 672.82 329.207C671.91 330.234 669.467 335.133 670.408 336.654L670.463 336.699ZM53.946 483.782C54.1756 483.678 54.393 483.55 54.5943 483.402C56.3536 484.349 58.2639 485.01 60.2476 485.356C60.48 485.395 60.7154 485.416 60.9513 485.417C62.9454 485.413 64.6079 483.948 64.7864 482.038C64.9649 480.127 63.6006 478.4 61.6392 478.054C54.3808 476.777 52.1511 470.06 53.1869 463.983C54.5627 455.829 61.4969 448.375 73.9183 449.713C72.6681 454.328 71.9078 459.053 71.6491 463.815C71.6491 463.815 71.6491 463.815 71.6491 463.853C70.2868 462.329 69.1797 460.61 68.3678 458.757C67.6585 457.313 65.8898 456.666 64.3619 457.291C62.8339 457.917 62.0926 459.592 62.6829 461.085C66.1381 468.889 73.3095 474.441 82.8766 476.716C85.9615 477.44 89.1259 477.805 92.3014 477.803C98.0496 477.803 103.292 476.579 106.162 474.327C107.156 473.704 107.691 472.588 107.539 471.456C107.387 470.324 106.575 469.375 105.45 469.015C104.324 468.654 103.083 468.945 102.256 469.764C101.221 470.449 100.054 470.93 98.8245 471.178C98.9728 470.781 99.0451 470.361 99.0379 469.939C98.9787 464.105 100.444 458.351 103.3 453.205C107.029 455.461 110.215 458.456 112.645 461.99C116.701 468.075 119.105 475.392 116.441 481.964C114.954 485.28 111.973 487.501 108.534 489.045C107.573 488.994 106.624 489.262 105.846 489.806C105.657 489.942 105.482 490.095 105.324 490.263L105.205 490.301C102.493 491.228 99.5519 491.7 96.4604 492.446C97.4961 492.879 98.7217 493.259 99.8049 493.617C101.313 494.005 102.848 494.287 104.399 494.461C104.528 494.818 104.709 495.156 104.936 495.465L105.672 496.424C111.27 503.786 115.697 509.605 117.753 515.021C120.252 521.623 118.876 525.327 117.121 530.02C115.757 533.266 114.902 536.688 114.583 540.175C114.337 543.978 114.954 547.948 115.555 551.797C116.346 556.764 117.215 562.393 115.144 563.823C112.06 565.937 108.51 566.401 105.656 565.047C100.864 562.766 97.8677 555.638 97.4329 545.4C97.085 537.033 92.7837 533.884 90.2615 532.759C86.5952 531.163 82.3253 531.551 79.0339 533.778C78.8975 533.881 78.7681 533.993 78.6465 534.113C72.3212 540.198 72.1314 549.325 71.8942 558.955C71.8773 563.276 71.6133 567.592 71.1035 571.885C70.1943 578.442 66.3595 580.77 62.9833 580.77H62.9201C59.1169 580.77 54.9343 577.78 54.1673 571.262C53.859 568.66 54.0488 561.374 55.132 553.258C56.3255 546.538 57.9387 539.893 59.963 533.36C60.5104 531.325 59.3479 529.226 57.2875 528.529C55.227 527.831 52.9542 528.767 52.0563 530.682C49.4075 537.117 47.7787 544.944 46.822 552.117C46.2448 555.212 45.6993 558.339 45.1537 561.526L44.7742 563.716C43.9044 568.698 40.4413 573.924 36.314 573.726C30.89 573.437 28.4073 571.353 28.7394 560.263C29.0054 555.032 29.7703 549.835 31.0245 544.739C31.9337 541.765 32.7876 538.654 33.6336 535.611C34.1554 533.702 34.6694 531.808 35.2149 530.051C36.2692 526.907 37.4104 523.624 38.6386 520.201C39.512 518.13 38.4747 515.77 36.3219 514.93C34.1691 514.089 31.716 515.087 30.8426 517.158C29.3317 520.615 28.0869 524.174 27.1185 527.807C25.4001 533.126 24.0059 538.07 22.9359 542.639C22.0846 545.539 21.0522 548.386 19.8444 551.166C17.7807 555.73 16.2705 556.49 16.0808 556.452C10.4986 555.463 9.39167 552.786 9.04377 550.291C7.97637 542.685 14.6338 528.37 26.8655 512.077C38.4409 496.386 50.0638 485.585 53.946 483.782Z" fill="white" stroke="white" stroke-width="9.62016" stroke-miterlimit="10" stroke-linecap="round"/>
<path d="M93.0209 189.853C93.0209 91.4503 199.532 11.3942 330.451 11.3942C337.488 11.3942 346.518 11.9875 356.378 12.9611C302.723 18.3692 253.108 36.8448 214.12 66.3419C166.806 102.122 140.714 149.844 140.714 200.699C140.714 226.484 147.387 251.486 160.552 274.997C170.881 293.221 184.28 309.671 200.204 323.677L163.399 316.877C163.078 316.426 162.688 316.024 162.244 315.683C117.611 282.018 93.0209 237.308 93.0209 189.853Z" fill="#DB8C45" stroke="#DB8C45" stroke-width="9.62016" stroke-miterlimit="10" stroke-linecap="round"/>
<path d="M212.135 558.909C212.144 563.76 213.492 568.522 216.041 572.707L190.74 567.923C190.378 567.855 190.01 567.822 189.641 567.824C175.733 567.824 164.418 558.94 164.418 548.047V431.55C165.257 431.504 166.091 431.389 166.909 431.207C175.796 429.207 177.37 419.912 175.939 412.488C174.695 405.66 170.519 399.651 164.434 395.937V328.287L212.143 337.064L212.135 558.909Z" fill="#B7692A" stroke="#B7692A" stroke-width="9.62016" stroke-miterlimit="10" stroke-linecap="round"/>
<path d="M278.473 595.085C275.672 593.386 272.697 591.972 269.593 590.863C268.039 590.375 266.454 589.979 264.849 589.677H307.111C305.529 590.932 303.869 592.133 302.137 593.274L301.995 593.373C298.714 595.549 294.998 598.005 291.511 598.964C287.391 600.097 283.264 597.77 278.473 595.085Z" fill="#FFFDEB"/>
<path d="M395.263 210.603C403.881 210.603 411.487 220.673 414.705 234.616H375.828C379.046 220.673 386.613 210.603 395.263 210.603ZM423.118 221.327C427.071 214.482 432.258 210.603 437.477 210.603C446.095 210.603 453.701 220.673 456.919 234.616H427.158C426.323 230.057 424.968 225.601 423.118 221.327Z" fill="#F9F6E1" stroke="#F9F6E1" stroke-width="9.62016" stroke-miterlimit="10" stroke-linecap="round"/>
<path d="M655.836 384.938L656.239 385.478L655.891 385.349C655.881 385.211 655.862 385.074 655.836 384.938ZM75.6894 467.01C75.7684 467.17 75.8554 467.322 75.9424 467.474L75.302 467.048C75.4285 467.033 75.5629 467.033 75.6894 467.01Z" fill="#FFFDEB"/>
<path d="M675.753 330.706C679.026 334.509 681.406 339.97 683.351 344.876C684 346.499 684.598 348.142 685.146 349.805C686.357 353.471 687.318 357.208 688.024 360.994C687.787 359.739 686.601 357.951 686.048 356.826C685.454 355.756 684.788 354.724 684.055 353.738C682.308 351.007 680.465 348.413 678.52 345.865C677.134 344.09 675.706 342.381 674.235 340.738C672.994 339.354 671.412 338.327 670.408 336.654C669.404 334.98 671.91 330.211 672.78 329.184C673.713 328.066 674.915 329.747 675.753 330.706Z" fill="#090100"/>
<path d="M48.3006 477.598C45.6914 473.597 44.624 468.41 45.5648 462.796C46.5367 456.752 49.8048 451.269 54.7367 447.409C58.69 444.366 65.5056 441.05 75.8001 442.449C75.9445 442.477 76.0871 442.512 76.2271 442.556C80.2435 432.176 86.1142 422.552 93.5744 414.116C105.347 400.638 121.406 390.871 140.05 390.172C144.407 389.996 148.77 390.39 153.017 391.343V324.225C152.629 323.575 152.381 322.855 152.29 322.111C130.665 305.247 113.547 285.76 101.457 264.12C88.2848 240.609 81.6115 215.608 81.6115 189.822C81.6115 138.967 107.704 91.2449 155.002 55.4346C201.928 19.9361 264.241 0.380371 330.475 0.380371C357.737 0.380371 411.487 8.60275 434.417 14.1477C434.724 14.2178 435.023 14.3171 435.31 14.4444C484.142 21.29 529.107 39.1267 565.043 66.3116C612.373 102.122 638.433 149.844 638.433 200.699C638.433 226.485 631.76 251.486 618.596 274.997C606.34 296.881 589.001 316.573 567.028 333.566V392.545C572.515 395.488 577.908 398.576 584.059 400.151C591.286 402.005 598.904 401.91 606.079 399.877C612.451 398.024 618.368 394.95 623.474 390.841C615.733 387.418 610.705 379.044 609.977 370.935C608.728 360.104 615.401 348.512 627.633 347.865H629.586C627.214 339.833 625.253 332.797 625.269 326.492C625.269 316.535 629.483 311.705 633.175 307.438C635.09 305.424 636.689 303.151 637.919 300.691C639.153 297.991 639.896 294.477 640.624 291.077C642.157 283.881 643.897 275.72 651.329 273.75C658.01 271.97 664.62 273.545 669.009 277.941C676.678 285.639 674.662 298.098 671.626 307.202C671.131 308.505 670.843 309.871 670.772 311.256C671.198 311.204 671.618 311.117 672.029 310.998C678.354 308.016 682.023 300.904 686.649 291.921C687.819 289.639 689.021 287.281 690.373 284.84C695.789 274.952 704.976 272.974 711.673 275.416C717.35 277.485 722.505 283.227 722.387 291.556C726.152 289.703 730.564 289.495 734.5 290.986C746.866 296.097 745.071 306.32 742.699 312.983C744.663 312.969 746.595 313.457 748.297 314.398C755.263 318.353 758.228 324.332 756.639 331.238C753.761 343.773 736.603 357.153 722.719 366.174C708.692 375.301 693.464 382.786 685.431 384.619C686.451 389.244 685.597 394.507 682.695 399.428C679.623 404.783 674.593 408.849 668.582 410.838C666.064 411.65 663.426 412.064 660.77 412.062C655.956 412.004 651.234 410.785 647.036 408.518C646.964 408.477 646.896 408.431 646.83 408.381C639.19 417.152 629.871 424.431 619.378 429.823C603.288 438.19 584.296 442.929 567.02 436.342V558.909C567.02 575.871 550.59 589.677 530.388 589.677H448.704C457.125 604.547 460.003 621.448 460.991 637.421C469.475 627.335 479.54 619.698 490.578 615.081C510.843 606.6 533.108 612.29 544.739 628.917L544.786 629.001L544.826 629.054C551.649 638.897 554.093 651.112 551.681 663.435C549.376 675.113 543.221 685.765 534.128 693.814C525.802 701.162 515.437 706.844 500.525 712.221C487.945 716.785 459.694 723.767 438.908 723.767C435.691 723.793 432.477 723.584 429.293 723.144C428.471 723.025 427.702 722.679 427.079 722.147C425.797 722.14 424.585 721.582 423.774 720.626C412.357 707.513 409.091 685.569 416.002 668.447C418.651 661.777 423.372 656.053 429.522 652.056C428.291 647.56 426.762 643.144 424.944 638.836C416.814 619.706 403.72 602.901 386.913 590.026C386.767 589.907 386.629 589.777 386.502 589.638H367.526C367.461 589.919 367.366 590.191 367.241 590.452C355.381 615.036 327.455 625.738 298.287 633.245C298.556 634.348 298.793 635.436 299.022 636.508L299.236 637.512C299.41 638.319 299.584 639.133 299.758 639.954C300.754 644.731 301.782 649.667 304.059 653.531C305.197 655.471 307.316 656.718 309.839 657.646L310.408 657.684C311.054 657.694 311.687 657.859 312.25 658.163C312.4 658.266 312.531 658.392 312.638 658.536C313.895 658.878 315.207 659.19 316.496 659.495L317.508 659.738C324.759 661.472 332.918 664.302 338.477 672.38C343.033 678.822 344.917 686.672 343.758 694.385C341.505 708.54 329.226 720.246 312.472 724.133C306.724 725.471 300.832 726.142 294.919 726.133C283.369 726.095 271.958 723.7 261.442 719.105C246.482 712.576 234.085 701.616 226.059 687.828C218.295 674.442 214.055 659.432 213.709 644.107C213.203 626.004 217.275 612.381 226.154 602.447C232.151 595.803 240.297 591.291 249.281 589.638H248.759C244.255 589.645 239.781 588.939 235.516 587.547L189.064 578.762C169.131 578.495 153.009 564.796 153.009 547.994V430.097C149.2 429.417 145.331 429.106 141.457 429.169C130.451 429.435 120.655 433.063 112.875 440.632C109.606 443.79 106.763 447.332 104.415 451.174C112.843 451.889 120.505 458.019 124.071 465.39C129.115 475.141 127.004 488.209 115.745 492.894C115.136 493.138 114.527 493.351 113.918 493.541C119.034 500.288 123.406 506.251 125.62 512.176C129.17 521.532 126.957 527.457 125.011 532.713C123.924 535.244 123.226 537.914 122.94 540.639C122.75 543.575 123.311 547.127 123.841 550.527C124.98 557.791 126.269 566.029 119.999 570.303C114.361 574.183 107.593 574.867 101.9 572.22C91.9456 567.542 89.3759 555.174 88.9648 545.598C88.8462 542.685 88.0397 540.654 86.7509 540.023C85.9734 539.684 85.0865 539.662 84.2919 539.962C80.6311 543.826 80.4571 550.877 80.2595 559.023C80.2259 563.629 79.9302 568.231 79.3739 572.806C77.84 583.812 70.0282 588.711 62.9043 588.711H62.7541C56.6738 588.65 49.7871 584.961 46.9407 577.103C44.0721 580.095 40.006 581.757 35.7764 581.667C22.1294 580.906 20.3029 570.448 20.1922 563.412C18.443 564.346 16.4045 564.648 14.4441 564.264C6.48997 562.864 1.56407 558.232 0.583634 551.219C-1.20328 538.502 10.0716 520.246 19.9155 507.179C29.7989 494.104 41.4455 481.979 48.3006 477.598ZM634.931 375.271C635.106 374.767 635.395 374.307 635.777 373.925C634.496 373.736 633.189 373.798 631.934 374.107C630.323 374.643 628.565 373.82 628.008 372.27C627.452 370.72 628.307 369.029 629.918 368.494C635.302 366.699 645.067 369.057 652.626 373.963C660.794 379.287 665.546 386.893 665.988 395.329C666.073 396.966 664.765 398.361 663.063 398.447H662.905C661.263 398.445 659.909 397.21 659.821 395.633C659.723 393.586 659.286 391.568 658.524 389.654C658.467 389.888 658.391 390.117 658.295 390.339C656.425 394.535 654.145 398.551 651.487 402.334C662.628 407.658 671.768 402.935 675.959 395.762C679.121 390.385 679.422 383.356 673.065 379.743C671.81 379.104 671.022 377.853 671.013 376.486C671.004 375.12 671.776 373.86 673.023 373.205C674.269 372.551 675.789 372.608 676.979 373.354C678.721 374.33 680.28 375.582 681.588 377.058C681.831 376.99 682.08 376.944 682.331 376.921C686.625 376.511 701.41 370.213 717.999 359.427C735.314 348.177 746.684 336.973 748.408 329.451C748.977 326.994 748.898 324.126 744.012 321.335C743.624 321.114 741.98 320.475 737.829 322.164C734.247 326.446 729.297 329.382 724.466 332.242C721.449 333.957 718.544 335.85 715.769 337.909C713.776 339.712 712.061 341.347 710.764 342.602C709.172 344.104 706.639 344.153 704.986 342.713C703.332 341.274 703.131 338.845 704.526 337.171C706.193 335.268 708.046 333.523 710.06 331.961C718.615 324.157 726.037 318.751 732.326 315.744C732.792 315.044 733.19 314.303 733.512 313.531C737.829 303.247 736.216 300.448 731.219 298.387C727.439 296.82 722.3 300.592 719.699 304.981C716.125 311.021 711.428 315.098 706.89 319.045C705.127 320.567 703.419 322.088 701.782 323.609C700.074 325.518 698.517 327.207 697.275 328.546C695.777 330.19 693.193 330.392 691.438 329.002C689.684 327.612 689.394 325.133 690.784 323.404C692.264 321.53 693.87 319.752 695.591 318.079C706.526 305.909 712.938 297.109 713.547 294.705C715.128 288.331 712.298 284.178 708.74 282.885C705.577 281.736 701.094 282.619 697.868 288.506C696.579 290.864 695.393 293.176 694.239 295.413C689.036 305.506 684.545 314.23 675.397 318.338C675.239 318.41 675.075 318.471 674.907 318.52C669.428 320.224 666.336 318.718 664.707 317.159C660.754 313.356 662.936 306.776 663.656 304.616C666.913 294.857 666.668 287.122 662.976 283.44C660.762 281.227 657.267 280.481 653.614 281.447C651.155 282.102 649.969 287.677 648.918 292.598C648.127 296.401 647.265 300.349 645.676 303.833C644.126 307.001 642.095 309.931 639.651 312.527C636.33 316.33 633.705 319.372 633.697 326.393C633.697 332.166 635.761 339.095 638.386 347.865L638.726 349.006C638.837 349.372 638.89 349.751 638.884 350.132C640.259 350.797 641.581 351.56 642.837 352.414C643.731 353.099 644.743 353.867 645.565 354.62C642.403 354.293 639.461 353.76 636.583 353.738H636.465C636.245 353.838 636.018 353.922 635.785 353.988C634.848 354.246 633.848 354.184 632.954 353.814C629.151 354.11 625.577 355.213 623 357.822C618.145 363.146 617.781 370.798 619.418 377.834C620.438 381.986 622.377 385.878 625.103 389.244C629.514 385.427 632.889 380.63 634.931 375.271ZM655.836 384.938C655.862 385.074 655.881 385.211 655.891 385.349L656.239 385.478L655.836 384.938ZM452.634 642.92L452.594 642.958H452.634V642.92ZM424.035 671.49C418.453 685.31 420.643 702.744 429.135 713.811C449.59 704.242 461.22 688.201 476.425 665.07C484.221 653.204 493.511 643.483 503.308 636.927C512.321 630.918 521.707 627.541 531.305 626.833C521.446 618.976 507.245 617.135 494.033 622.665C481.201 628.035 469.76 638.106 460.952 651.782C457.584 657.026 454.728 662.559 452.42 668.31C451.868 669.7 450.587 670.701 449.059 670.936C447.532 671.171 445.99 670.604 445.015 669.449C444.04 668.294 443.779 666.726 444.332 665.336C446.166 660.77 448.319 656.328 450.776 652.04C437.477 655.798 428.313 660.879 424.027 671.49H424.035ZM302.011 593.373L302.153 593.274C303.885 592.133 305.537 590.932 307.127 589.677H264.849C266.454 589.979 268.039 590.375 269.593 590.863C272.702 591.971 275.683 593.385 278.489 595.085C283.28 597.77 287.407 600.097 291.527 598.964C294.998 598.005 298.714 595.549 302.011 593.373ZM233.08 608.198C225.751 616.397 222.398 628.073 222.849 643.894C223.152 657.775 226.985 671.373 234.013 683.5C241.09 695.664 252.022 705.335 265.213 711.103C279.746 717.416 295.773 719.014 310.337 715.606C326.285 711.879 333.408 701.519 334.753 693.069C335.563 687.516 334.187 681.873 330.894 677.248C327.281 672.022 322.054 669.877 315.318 668.265L314.338 668.036C311.714 667.461 309.132 666.727 306.605 665.838C304.051 665.701 300.714 665.549 298.698 665.542C295.78 665.542 292.839 665.602 289.882 665.785C286.575 665.979 283.282 666.362 280.022 666.933C281.431 665.828 282.913 664.812 284.458 663.891C288.283 661.644 292.431 659.949 296.769 658.863C296.54 658.536 296.318 658.209 296.113 657.859C293.116 652.771 291.89 646.883 290.799 641.681L290.301 639.307L290.08 638.281C289.709 636.38 289.237 634.498 288.664 632.644C288.597 632.435 288.544 632.222 288.506 632.005C276.093 624.315 280.774 611.689 282.592 606.836C279.564 605.699 276.653 604.293 273.895 602.638C271.627 601.258 269.225 600.094 266.723 599.162C254.64 595.426 241.405 598.981 233.08 608.198ZM223.545 330.896V558.909C223.545 566.919 229.649 573.833 238.402 576.944L238.647 576.989C239.199 577.091 239.732 577.273 240.228 577.529C243.007 578.309 245.888 578.704 248.783 578.701H530.372C544.28 578.701 555.595 569.817 555.595 558.924V330.911C555.596 329.227 556.4 327.637 557.777 326.598C602.418 292.895 626.977 248.185 626.977 200.699C626.977 102.297 520.465 22.2408 389.546 22.2408C258.627 22.2408 152.139 102.297 152.139 200.699C152.139 248.185 176.721 292.895 221.363 326.598C222.74 327.637 223.544 329.227 223.545 330.911V330.896ZM164.434 395.937C170.525 399.648 174.707 405.657 175.954 412.488C177.385 419.912 175.812 429.222 166.925 431.207C166.106 431.389 165.273 431.504 164.434 431.55V548.032C164.434 558.94 175.749 567.808 189.657 567.808C190.026 567.807 190.394 567.84 190.756 567.907L216.057 572.692C213.508 568.506 212.16 563.745 212.151 558.894V337.049L164.434 328.287V395.937ZM162.252 315.714C162.696 316.054 163.085 316.457 163.406 316.908L200.22 323.723C184.296 309.717 170.897 293.267 160.568 275.043C147.403 251.464 140.714 226.485 140.714 200.699C140.714 149.844 166.806 102.122 214.104 66.3116C253.108 36.8144 302.723 18.3388 356.378 12.9307C346.518 11.9571 337.488 11.3638 330.451 11.3638C199.532 11.3638 93.0209 91.4199 93.0209 189.822C93.0209 237.308 117.611 282.018 162.244 315.714H162.252ZM75.6894 467.01H75.302L75.9424 467.436C75.8792 467.322 75.7685 467.17 75.6894 467.01ZM8.9015 550.23C9.2494 552.725 10.3563 555.403 15.9384 556.391C16.1282 556.391 17.6383 555.631 19.702 551.105C20.9098 548.325 21.9422 545.478 22.7935 542.578C23.8478 538.015 25.242 533.071 26.9762 527.746C27.9447 524.114 29.1894 520.554 30.7003 517.097C31.5736 515.026 34.0268 514.029 36.1796 514.869C38.3325 515.709 39.3696 518.069 38.4963 520.14C37.2417 523.563 36.1006 526.846 35.0727 529.99C34.5667 531.77 34.0527 533.641 33.4913 535.55C32.6453 538.593 31.7914 541.742 30.8821 544.678C29.6279 549.774 28.863 554.971 28.597 560.202C28.2254 571.292 30.7477 573.376 36.1717 573.665C40.299 573.863 43.7621 568.638 44.6319 563.655L45.0114 561.465C45.557 558.278 46.1025 555.152 46.6797 552.056C47.6364 544.883 49.2652 537.056 51.914 530.621C52.8119 528.706 55.0847 527.77 57.1452 528.468C59.2056 529.166 60.368 531.264 59.8207 533.299C57.7964 539.832 56.1832 546.477 54.9897 553.197C53.9065 561.313 53.7167 568.6 54.025 571.201C54.8157 577.719 58.9746 580.671 62.7778 580.709H62.841C66.1856 580.709 70.052 578.381 70.9612 571.825C71.471 567.532 71.735 563.215 71.7519 558.894C71.9891 549.249 72.2184 540.129 78.5042 534.052C78.6258 533.932 78.7552 533.821 78.8916 533.717C82.183 531.49 86.4529 531.102 90.1192 532.698C92.6414 533.824 96.9427 536.957 97.2906 545.34C97.7254 555.578 100.722 562.735 105.514 564.987C108.384 566.34 111.934 565.876 115.002 563.762C117.073 562.332 116.195 556.703 115.413 551.736C114.812 547.888 114.195 543.91 114.44 540.114C114.76 536.627 115.615 533.205 116.978 529.96C118.734 525.267 120.141 521.593 117.611 514.96C115.555 509.544 111.127 503.726 105.529 496.363L104.794 495.404C104.567 495.095 104.386 494.757 104.256 494.4C102.706 494.226 101.171 493.944 99.6626 493.556C98.5793 493.199 97.3538 492.795 96.318 492.385C99.4095 491.624 102.351 491.168 105.063 490.24L105.181 490.202C105.34 490.034 105.515 489.881 105.703 489.745C106.481 489.201 107.431 488.933 108.392 488.985C111.871 487.463 114.851 485.182 116.298 481.903C118.963 475.331 116.559 467.991 112.503 461.929C110.072 458.395 106.886 455.4 103.157 453.144C100.302 458.29 98.8363 464.044 98.8956 469.878C98.9028 470.3 98.8305 470.72 98.6821 471.118C99.9121 470.869 101.078 470.388 102.114 469.703C102.941 468.884 104.182 468.593 105.307 468.954C106.433 469.314 107.245 470.263 107.397 471.395C107.549 472.527 107.013 473.643 106.02 474.266C103.149 476.548 97.9073 477.743 92.1591 477.743C88.9836 477.745 85.8192 477.379 82.7343 476.655C73.1672 474.373 65.9958 468.828 62.5406 461.024C61.9503 459.531 62.6916 457.856 64.2195 457.23C65.7475 456.605 67.5162 457.252 68.2255 458.696C69.0374 460.549 70.1444 462.268 71.5068 463.793C71.5068 463.793 71.5068 463.793 71.5068 463.755C71.7655 458.992 72.5258 454.267 73.776 449.653C61.3546 448.314 54.4204 455.738 53.0446 463.922C52.0167 470.007 54.2385 476.716 61.4969 477.994C63.4583 478.339 64.8226 480.066 64.6441 481.977C64.4656 483.887 62.8031 485.353 60.809 485.356C60.5731 485.355 60.3377 485.334 60.1053 485.296C58.1215 484.949 56.2113 484.288 54.452 483.341C54.2507 483.489 54.0333 483.617 53.8037 483.721C49.9215 485.524 38.2986 496.332 26.5809 511.956C14.4915 528.332 7.8341 542.594 8.9015 550.23Z" fill="#090100"/>
<path d="M416.389 282.649C411.037 291.107 403.604 296.272 395.263 296.272C378.587 296.272 365.526 275.628 365.526 249.28C365.526 222.932 378.587 202.296 395.263 202.296C403.604 202.296 411.076 207.461 416.397 215.927C421.932 207.218 429.428 202.296 437.477 202.296C454.152 202.296 467.214 222.932 467.214 249.28C467.214 275.628 454.152 296.272 437.477 296.272C429.388 296.242 421.892 291.335 416.389 282.649ZM374.191 249.28C374.191 270.236 383.845 287.935 395.263 287.935C398.963 287.935 402.466 286.072 405.541 282.862H405.454C400.054 282.862 395.31 276.488 392.606 266.889L405.858 261.146L390.993 257.761C390.547 254.657 390.283 251.531 390.202 248.398C390.202 246.557 390.274 244.755 390.4 242.99H374.484C374.302 245.006 374.191 247.113 374.191 249.25V249.28ZM395.263 210.633C386.644 210.633 379.046 220.704 375.828 234.646H414.705C411.487 220.673 403.881 210.602 395.263 210.602V210.633ZM456.935 234.646C453.717 220.704 446.111 210.633 437.492 210.633C432.274 210.633 427.103 214.512 423.134 221.358C424.984 225.631 426.339 230.087 427.174 234.646H456.935ZM446.965 261.458L433.009 258.286C432.626 255.191 432.436 252.077 432.44 248.961C432.44 246.922 432.519 244.922 432.669 242.982H428.226C428.352 244.762 428.431 246.565 428.431 248.39C428.431 258.522 426.399 268.38 422.675 276.42C426.7 283.767 432.037 287.935 437.492 287.935C440.979 287.935 444.292 286.285 447.226 283.372C441.881 283.022 437.231 276.473 434.638 266.775L446.965 261.458ZM359.366 306.502C364.647 303.256 371.052 302.161 377.172 303.46C381.774 304.449 385.964 306.898 390.021 309.263C393.499 311.294 396.789 313.219 400.07 314.116C405.068 315.419 410.216 316.116 415.393 316.193C416.103 315.982 416.858 315.953 417.583 316.109L417.987 316.216C432.669 316.261 441.114 319.912 443.082 327.077C445.684 336.578 434.757 347.31 422.77 353.737C420.322 355.05 417.786 356.206 415.18 357.198C407.677 359.973 399.703 361.381 391.665 361.351C389.873 361.351 388.081 361.283 386.289 361.146C375.535 360.294 366.348 357.016 359.722 351.646C353.096 346.276 346.17 336.562 349.76 319.874C350.955 314.353 354.42 309.53 359.366 306.502ZM418.611 346.542C429.538 340.685 435.808 332.85 434.804 329.184C434.219 327.039 429.973 324.788 420.026 324.484L414.444 348.557C415.852 347.949 417.241 347.277 418.611 346.542ZM404.956 351.668L411.282 324.286C407.163 324.011 403.078 323.385 399.074 322.415L391.958 353.197C396.337 353.167 400.698 352.657 404.956 351.676V351.668ZM383.339 352.558L391.017 319.479V319.349C389.143 318.399 387.332 317.341 385.545 316.307C383.758 315.272 382.232 314.382 380.643 313.569C380.634 313.825 380.6 314.079 380.54 314.329L372.634 348.398C372.537 348.775 372.388 349.139 372.191 349.478C375.747 350.982 379.497 352.02 383.339 352.566V352.558ZM364.719 344.906L372.223 312.549C372.336 312.064 372.539 311.603 372.823 311.188C369.718 311.024 366.638 311.8 364.015 313.409C360.996 315.249 358.878 318.184 358.141 321.548C355.998 331.497 358.22 339.346 364.719 344.914V344.906Z" fill="#090100"/>
</g>
</svg>
